<?xml version="1.0" encoding="UTF-8" standalone="no"?>
<!DOCTYPE svg PUBLIC "-//W3C//DTD SVG 1.1//EN" "http://www.w3.org/Graphics/SVG/1.1/DTD/svg11.dtd">
<svg width="100%" height="100%" viewBox="0 0 6000 4000" version="1.1" xmlns="http://www.w3.org/2000/svg" xmlns:xlink="http://www.w3.org/1999/xlink" xml:space="preserve" xmlns:serif="http://www.serif.com/" style="fill-rule:evenodd;clip-rule:evenodd;stroke-linecap:round;stroke-linejoin:round;stroke-miterlimit:1.5;">
    <g id="Background" transform="matrix(0.994751,0,0,1,-0.0168756,0)">
        <rect x="-3.215" y="-10.148" width="6023.97" height="4024.06" style="fill:rgb(176,208,232);"/>
    </g>
    <g id="Shading">
        <g id="Mian">
            <path id="Main-Color" serif:id="Main Color" d="M435.127,2510.57L4294.03,2308.48L4802.63,1146.79L4801.7,1130.75L4780.11,1128.9L4344.49,1157.68L4169.93,1496.75L4159.17,1508.49L4137.96,1510.03L3370.41,1540.99L3347.14,1546.33L3326.9,1565.42L3242.84,1678L2746.26,1705.5C2736.05,1706.28 2727.88,1713.03 2720.76,1722.8L2604.02,1870.5C2597.69,1881.45 2584.81,1889.13 2560.93,1891.31L2199.11,1912.56C2180.33,1910.15 2164.06,1917.32 2150.9,1936.32L1913.62,2235.54C1901.43,2248.65 1887.62,2260.39 1856.81,2257.65L651.857,2315.82C636.631,2314.5 624.85,2318.51 615.657,2326.51L435.127,2510.57Z" style="fill:rgb(54,69,79);"/>
            <path id="Shading1" serif:id="Shading" d="M641.053,2314.48L699.752,2311.11C699.752,2311.11 594.971,2413.18 550.777,2456.24C547.782,2459.15 546.918,2463.62 548.611,2467.45C550.303,2471.27 554.195,2473.64 558.368,2473.38C873.257,2454.04 3854.82,2270.95 4215.73,2248.79C4237.73,2247.43 4257.22,2234.13 4266.49,2214.14C4343.2,2048.67 4689.16,1302.42 4742.49,1187.38C4743.96,1184.22 4743.67,1180.52 4741.73,1177.61C4739.79,1174.71 4736.48,1173.04 4732.99,1173.19C4655.58,1176.55 4330.77,1190.63 4330.77,1190.63L4348.51,1155.67L4773.06,1134.17L4804.04,1130.4L4298.93,2297.28C3007.26,2378.52 1714.1,2469.68 428.268,2511.97L623.133,2320.92L641.053,2314.48Z" style="fill:rgb(46,44,58);fill-opacity:0.2;"/>
        </g>
        <g id="Right-Engine-Back" serif:id="Right Engine Back">
            <path d="M3563.86,1690.62L3537.24,1721.19L3519.63,1735.56L3492.31,1741.75L3450.48,1732.32L3454.84,1730.93L3459.2,1730.63L3465.88,1730.19L3473.23,1729.04L3482.46,1725.53L3492.67,1716.19L3511.65,1694.67L3525.69,1676.95L3563.86,1690.62Z" style="fill:rgb(46,52,56);"/>
            <path d="M3485.24,1723.54C3481.99,1727.96 3471.81,1730.63 3453.9,1731.33L3252.6,1701.62L3294.7,1697.59L3333.66,1653.66L3485.24,1723.54Z" style="fill:rgb(20,25,29);"/>
            <path d="M3371.66,1599.29L3293.3,1617.34L3241.53,1678.97L2924.55,1698.55L2924.41,1700.79L3017.2,1700.65L3155.08,1698.14L3201.97,1698.41L3253.91,1702.79L3260.29,1701.1L3276.64,1699L3294.61,1697.06L3333.4,1654L3341.21,1632.74L3371.66,1599.29Z" style="fill:rgb(31,39,45);"/>
            <path d="M3525.89,1676.87L3484.82,1723.19L3333.92,1653.78L3341.89,1633.42C3404.51,1643.4 3465.41,1659.4 3525.89,1676.87Z" style="fill:rgb(74,95,109);"/>
        </g>
        <g id="Left-Engine-Back" serif:id="Left Engine Back" transform="matrix(1,0,0,1,0.559624,-0.0314319)">
            <path id="back" d="M2932.35,1877.56L2891.28,1934.12C2879.8,1944.8 2867.26,1948.12 2854.53,1950.04L2690.32,1974.05L2650.99,1960.48L2515.03,1918.14L2469.67,1907.31L2369.36,1917.44L2384.03,1904.12L2561.04,1890.89L2584.45,1885.04L2601.54,1872.63L2646.85,1817.61L2721.72,1799.54L2700.75,1827.44L2932.35,1877.56Z" style="fill:rgb(20,25,29);"/>
            <path id="Light" d="M2908.57,1871.19C2890.55,1891.88 2872.53,1912.57 2854.51,1933.25L2692.03,1850.55L2699.61,1827.8L2908.57,1871.19Z" style="fill:rgb(74,95,109);"/>
            <path id="side" d="M2894.43,1869.42L2847.14,1929.59L2830.8,1937.57L2811.82,1940.56L2654.17,1961.19L2688.38,1974.93L2853.71,1950.01C2862.17,1949.02 2870.02,1947.12 2877.12,1944.08C2888.36,1936.92 2896.43,1928.06 2903.24,1918.52L2931.86,1878.49L2894.43,1869.42Z" style="fill:rgb(46,52,56);"/>
        </g>
        <path id="Edge" d="M2721.84,1799.5L2701.8,1825.79L2700.44,1827.57L2692.02,1849.8L2641.31,1909.23L2514.51,1916.73L2470.85,1908.03L2369.92,1917.1L2384.45,1904.53L2482.48,1896.39C2482.48,1896.39 2537.63,1893.5 2568.99,1890.67C2588.98,1888.87 2605.15,1868.69 2616.87,1854.17C2626.7,1841.99 2647.56,1818.64 2647.56,1818.64L2721.84,1799.5Z" style="fill:rgb(31,39,45);"/>
        <path id="Shading---Front" serif:id="Shading - Front" d="M3987.97,2094.65C3972.22,2071.82 3937.72,2058.55 3910.5,2044.02C3875.31,2025.25 3822.81,1999.25 3776.83,1981.99C3704.78,1954.95 3576.54,1905.79 3478.22,1881.78C3382.83,1858.49 3186.92,1837.96 3186.92,1837.96C3186.92,1837.96 3418.14,1969.33 3489.79,2010.94C3532.56,2035.78 3575.04,2064.45 3616.83,2087.62C3657.23,2110.01 3701.49,2134.57 3740.57,2149.95C3776.16,2163.95 3817.28,2172.94 3851.32,2179.87C3882.08,2186.13 3919.15,2191.32 3944.76,2191.51C3965.15,2191.67 3997.81,2197.19 4005.01,2181.04C4012.21,2164.9 4003.72,2117.49 3987.97,2094.65Z" style="fill:rgb(74,95,109);"/>
        <path id="Shading---Right-Engine" serif:id="Shading - Right Engine" d="M4022.37,1927.98L4016.69,1901.04L3601.48,1770.99C3601.48,1770.99 3774.33,1828.75 3844.48,1854.92C3904.54,1877.32 4022.37,1927.98 4022.37,1927.98Z" style="fill:rgb(74,95,109);"/>
        <path id="Shading---Left-Engine" serif:id="Shading - Left Engine" d="M3355.56,2136.58C3351.79,2126.55 3338.12,2123.87 3328.33,2119.53C3312.12,2112.36 3281.84,2101.64 3258.3,2093.53C3248.23,2090.06 3235.29,2085.43 3220.99,2080.32C3182.66,2066.64 3134.58,2049.64 3105.88,2042.93C3078.56,2036.55 3047.61,2036.77 3021.85,2038.32C2997.93,2039.75 2956.4,2046.68 2951.32,2052.22C2946.25,2057.75 2977.74,2065.72 2991.39,2071.51C3009.12,2079.02 3037.88,2089.24 3057.71,2097.3C3075.4,2104.49 3093.01,2111.87 3110.35,2119.87C3134.48,2130.99 3173.79,2149.54 3202.48,2164.07C3229.49,2177.76 3261.32,2194.96 3282.5,2207.08C3297.6,2215.72 3312.89,2223.5 3324.21,2229.61C3332.93,2234.33 3350.39,2243.74 3350.39,2243.74C3350.39,2243.74 3351.91,2227.24 3352.57,2218.98C3353.3,2209.99 3354.39,2199.56 3354.74,2189.82C3355.24,2176.09 3359.96,2148.29 3355.56,2136.58Z" style="fill:rgb(74,95,109);"/>
        <path id="Front-Glass" serif:id="Front Glass" d="M3827.74,2063.46L3800.25,2121.51C3800.25,2121.51 3877.21,2160.42 3912.84,2172.59C3939.34,2181.64 3986.13,2191.95 4014.03,2194.55C4060.05,2198.83 4170.66,2199.31 4193.59,2187.63C4214.88,2176.79 4228.22,2151.41 4219.08,2120.65L4146.23,2032.59C4146.23,2032.59 4139.91,2055.88 4104.78,2074.94C4073.06,2092.15 3987.7,2093.87 3941.53,2091.96C3902.46,2090.34 3827.74,2063.46 3827.74,2063.46Z" style="fill:rgb(125,170,196);"/>
        <path id="Shading---Front-Glass" serif:id="Shading - Front Glass" d="M3989.52,2097.01C4003.96,2108.26 4023.18,2194.04 3990.7,2190.97C3981.74,2190.13 3930.32,2178.68 3884.95,2161.53C3839.58,2144.38 3800.25,2121.51 3800.25,2121.51L3827.74,2063.46C3827.74,2063.46 3861.71,2077.83 3907.15,2086.8C3938.57,2093 3985.41,2093.81 3989.52,2097.01Z" style="fill:rgb(160,193,212);"/>
    </g>
    <g id="White-lines" serif:id="White lines" opacity="0.32">
        <path d="M4018.99,1576.68C4018.63,1576.7 4018.31,1576.9 4018.14,1577.21L4010.23,1591.71C4010.06,1592.03 4010.07,1592.42 4010.26,1592.73C4010.45,1593.04 4010.8,1593.22 4011.16,1593.21L4387.65,1577.47C4387.91,1577.45 4388.15,1577.31 4388.27,1577.07L4580.44,1202.2C4580.44,1202.2 4704.97,1213.61 4704.97,1213.61C4705.17,1213.63 4705.37,1213.54 4705.48,1213.37L4713.9,1200.17C4714,1200.01 4714.02,1199.81 4713.93,1199.64C4713.85,1199.47 4713.68,1199.36 4713.49,1199.34L4543.58,1185.25C4543.35,1185.23 4543.13,1185.36 4543.02,1185.56L4345.98,1559.91C4332.36,1560.61 4018.99,1576.68 4018.99,1576.68ZM4019.66,1578.7C4034.81,1577.9 4346.53,1561.5 4346.53,1561.5C4346.81,1561.49 4347.07,1561.32 4347.2,1561.07C4347.2,1561.07 4537.2,1199.17 4543.87,1186.45C4543.87,1186.45 4712.52,1200.34 4712.52,1200.34C4712.52,1200.34 4704.75,1212.51 4704.75,1212.51C4704.75,1212.51 4580.18,1201.1 4580.18,1201.1C4579.96,1201.08 4579.75,1201.19 4579.65,1201.39L4387.17,1576.04C4373.7,1576.58 4040.24,1590.01 4012.86,1591.12L4019.66,1578.7Z" style="fill:rgb(212,226,236);"/>
        <path d="M3597.72,1644.24C3598.2,1644.2 3598.59,1643.82 3598.65,1643.34C3598.71,1642.86 3598.42,1642.41 3597.96,1642.25L3538.78,1622.11C3538.78,1622.11 3976.61,1597.45 3976.61,1597.45C3976.8,1597.44 3976.97,1597.34 3977.07,1597.18L3985.45,1583.94C3985.56,1583.76 3985.56,1583.53 3985.46,1583.35C3985.35,1583.16 3985.15,1583.05 3984.94,1583.06C3940.85,1584.74 3896.77,1586.44 3852.7,1588.27C3786.53,1591.02 3720.42,1594.12 3654.42,1598.18C3580.95,1602.71 3507.63,1608.4 3434.56,1616.13C3434.17,1616.17 3433.87,1616.48 3433.83,1616.88C3433.8,1617.27 3434.05,1617.63 3434.42,1617.74L3542.11,1648.9C3542.22,1648.94 3542.34,1648.95 3542.45,1648.94L3597.72,1644.24ZM3592.73,1642.62L3542.46,1647.02C3542.46,1647.02 3438.92,1617.32 3438.92,1617.32C3510.57,1609.68 3582.46,1603.95 3654.5,1599.41C3720.48,1595.26 3786.59,1592.09 3852.74,1589.33C3896.45,1587.51 3940.17,1585.88 3983.9,1584.24C3983.9,1584.24 3976.25,1596.31 3976.25,1596.31C3976.25,1596.31 3533.78,1620.49 3533.78,1620.49C3533.33,1620.51 3532.95,1620.86 3532.89,1621.31C3532.83,1621.76 3533.1,1622.19 3533.53,1622.34L3592.73,1642.62Z" style="fill:rgb(212,226,236);"/>
        <path d="M3924.95,1680.84C3925.12,1680.52 3925.1,1680.13 3924.91,1679.82C3924.71,1679.51 3924.36,1679.33 3924,1679.34L3745.96,1687.63C3745.96,1687.63 3625.85,1650.43 3625.85,1650.43C3625.78,1650.41 3625.71,1650.4 3625.64,1650.4L3566.09,1654.31C3565.83,1654.32 3565.62,1654.53 3565.59,1654.79C3565.56,1655.05 3565.72,1655.29 3565.98,1655.36L3734.97,1704.64C3735.04,1704.66 3735.11,1704.67 3735.19,1704.67L3916.94,1694.99C3917.29,1694.98 3917.6,1694.77 3917.76,1694.47L3924.95,1680.84ZM3922.32,1681.47L3916.27,1693.05C3916.27,1693.05 3740.3,1703.05 3735.22,1703.34C3735.22,1703.34 3591.72,1661.71 3569.23,1655.18C3569.23,1655.18 3625.61,1651.56 3625.61,1651.56C3625.61,1651.56 3745.65,1689.07 3745.65,1689.07C3745.73,1689.1 3745.82,1689.11 3745.9,1689.1L3922.32,1681.47Z" style="fill:rgb(212,226,236);"/>
        <path d="M4423.45,1828.14C4424.3,1828.28 4425.15,1827.86 4425.55,1827.09L4433.69,1811.34C4433.98,1810.79 4433.98,1810.13 4433.71,1809.58C4433.43,1809.02 4432.91,1808.62 4432.3,1808.52C4432.3,1808.52 4246.87,1776.34 4241.32,1775.38C4241.32,1775.38 4017.84,1693.99 3996.65,1686.28C3996.65,1686.28 4000.13,1682.98 4000.13,1682.98C4000.43,1682.68 4000.54,1682.24 4000.39,1681.84C4000.24,1681.44 3999.87,1681.17 3999.45,1681.15L3954.08,1679.01C3953.71,1679 3953.36,1679.18 3953.16,1679.49L3943.31,1694.85C3943.14,1695.12 3943.1,1695.45 3943.2,1695.75C3943.3,1696.05 3943.54,1696.29 3943.84,1696.4C3943.84,1696.4 3994.71,1714.38 4052.38,1734.83C4127.93,1761.62 4215.14,1792.65 4215.14,1792.65C4215.22,1792.67 4215.3,1792.7 4215.39,1792.71L4423.45,1828.14ZM4422.68,1823.95L4215.99,1789.85C4212.32,1788.56 4127.11,1758.69 4053.14,1732.68C4000.69,1714.24 3953.9,1697.73 3945.78,1694.87C3945.78,1694.87 3954.58,1681.11 3954.58,1681.11C3954.58,1681.11 3996.88,1683.14 3996.88,1683.14C3996.88,1683.14 3993.95,1685.92 3993.95,1685.92C3993.68,1686.17 3993.56,1686.54 3993.64,1686.9C3993.71,1687.26 3993.97,1687.56 3994.31,1687.68L4240.42,1778.22C4240.51,1778.25 4240.59,1778.28 4240.68,1778.29L4428.99,1811.89L4422.68,1823.95Z" style="fill:rgb(212,226,236);"/>
        <path d="M4330,2022.06L4162.32,2014.01L4102.31,1988.23L4303.41,1935.87L4359.71,1837.5L4410.7,1848.92L4330,2022.06Z" style="fill:none;stroke:rgb(212,226,236);stroke-width:4px;"/>
        <path d="M3034.46,2016.02L2996.12,2010.69C2996.12,2010.69 3013.12,1997.94 3027.8,1990.79C3038.75,1985.46 3108.81,1960.64 3133.3,1952.44C3146.84,1947.91 3167.13,1943.34 3174.75,1941.6C3176.14,1941.28 3177.6,1941.78 3179,1942.01C3185.2,1943.05 3211.95,1947.84 3211.95,1947.84C3211.95,1947.84 3196.17,1950.44 3188.49,1952.59C3171.63,1957.31 3131.33,1969.09 3110.8,1976.17C3095.29,1981.52 3078.06,1988.4 3065.34,1995.04C3054.31,2000.8 3034.46,2016.02 3034.46,2016.02Z" style="fill:none;stroke:rgb(212,226,236);stroke-width:2px;"/>
        <path d="M2945.32,2065.94L2817.2,2120.67L2855.03,2133.53L2981.14,2078.55L2945.32,2065.94Z" style="fill:none;stroke:rgb(212,226,236);stroke-width:4px;"/>
        <path d="M3095.51,2308.51L3613.67,2276.15L3647.7,2194.34L3590.46,2167.45L3383.88,2258.21L3083.47,2281.87L3095.51,2308.51Z" style="fill:none;stroke:rgb(212,226,236);stroke-width:4px;"/>
        <path d="M2692.89,2109.07L2634.58,2115.86L2638.8,2133.4L2661.37,2131.42L2917.46,2228.31L2969.35,2317.76L3020.6,2312.79L2967.96,2215.74L2692.89,2109.07Z" style="fill:none;stroke:rgb(212,226,236);stroke-width:4px;"/>
        <path d="M871.001,2438.67C871.85,2438.59 872.623,2438.14 873.124,2437.45C873.626,2436.76 873.81,2435.89 873.629,2435.05L861.837,2380.86C903.477,2378.21 1319.6,2351.72 1682.4,2328.74C1974.32,2310.26 2231.72,2294.05 2231.72,2294.05C2232.23,2294.02 2232.7,2293.75 2232.98,2293.32L2330.97,2145.18C2331.3,2144.68 2331.32,2144.05 2331.02,2143.53C2330.72,2143.02 2330.16,2142.72 2329.57,2142.75L2276.21,2146.15C2275.74,2146.18 2275.3,2146.42 2275.03,2146.8L2183.84,2275.47C2168.32,2276.46 1915.16,2292.63 1629.23,2310.73C1242.65,2335.21 796.163,2363.26 796.163,2363.26C795.31,2363.31 794.528,2363.75 794.034,2364.44C793.539,2365.14 793.386,2366.02 793.617,2366.85L814.539,2441.9C814.924,2443.28 816.24,2444.17 817.658,2444.03L871.001,2438.67ZM867.061,2433.05L819.515,2437.94C819.515,2437.94 800.018,2368.68 800.018,2368.68C842.41,2365.9 1262.87,2338.37 1629.47,2314.54C1924.58,2295.35 2184.79,2278.58 2184.79,2278.58C2185.27,2278.55 2185.7,2278.31 2185.98,2277.92L2277.15,2149.21C2277.15,2149.21 2326.62,2146.08 2326.62,2146.08C2326.62,2146.08 2230.71,2290.85 2230.71,2290.85C2214.75,2291.84 1964.61,2307.31 1682.15,2324.68C1299.73,2348.21 858.07,2375.23 858.07,2375.23C857.219,2375.28 856.433,2375.7 855.918,2376.39C855.403,2377.07 855.211,2377.94 855.391,2378.77L867.061,2433.05Z" style="fill:rgb(212,226,236);"/>
        <path d="M2347.68,2130.38L2294.83,2132.64L2442.22,1931.58L2551.32,1968.34L2538.23,1987.72L2467.9,1964.33L2347.68,2130.38Z" style="fill:none;stroke:rgb(212,226,236);stroke-width:4px;"/>
        <path d="M2573.08,1973.77C2572.63,1973.61 2572.14,1973.79 2571.89,1974.19L2560.03,1993.59C2559.86,1993.87 2559.82,1994.22 2559.93,1994.54C2560.04,1994.85 2560.28,1995.1 2560.6,1995.22L2676.41,2039.04C2676.41,2039.04 2639.53,2102.32 2639.53,2102.32C2639.16,2102.95 2639.18,2103.73 2639.57,2104.34C2639.96,2104.96 2640.66,2105.3 2641.39,2105.24L2696.21,2100.3C2696.85,2100.24 2697.42,2099.88 2697.75,2099.32L2736.75,2032.21C2737.02,2031.75 2737.07,2031.19 2736.89,2030.68C2736.7,2030.18 2736.3,2029.78 2735.79,2029.6L2573.08,1973.77ZM2573.18,1975.92L2732.54,2032.27C2732.54,2032.27 2694.83,2096.43 2694.83,2096.43C2694.83,2096.43 2644.78,2101.01 2644.78,2101.01C2644.78,2101.01 2680.43,2039.02 2680.43,2039.02C2680.68,2038.58 2680.73,2038.05 2680.56,2037.57C2680.39,2037.09 2680.01,2036.71 2679.54,2036.53L2562.64,1993.58L2573.18,1975.92Z" style="fill:rgb(212,226,236);"/>
    </g>
    <g id="Line-Art" serif:id="Line Art">
        <g id="Line-art-Edges" serif:id="Line art Edges">
            <path d="M4531.9,1135.74C4464.22,1140.41 4380.66,1145.42 4350.52,1147.21C4343.4,1147.63 4337.04,1151.81 4333.84,1158.18C4314.86,1195.87 4248.42,1327.69 4212.67,1396.44C4195.14,1430.15 4170.39,1472.41 4159.58,1490.65C4156.21,1496.33 4150.25,1499.97 4143.65,1500.39C4108.42,1502.61 3993.07,1509.76 3925.84,1512.74C3859.29,1515.7 3789.03,1518.74 3732.95,1521.04L3377.43,1534.3C3372.29,1534.53 3366.61,1535.03 3361.37,1535.83C3357.33,1536.45 3353.55,1537.25 3350.43,1538.22C3346.62,1539.41 3342.72,1540.99 3339.29,1543.17C3336.73,1544.8 3334.43,1546.74 3332.56,1549.07C3326.12,1557.1 3315.64,1570.96 3303.67,1587.09C3283.64,1614.06 3259.39,1647.37 3242.79,1670.2C3241.02,1672.63 3238.25,1674.14 3235.25,1674.3C3188.28,1676.88 2807.24,1697.79 2744.11,1701.26C2738.47,1701.57 2733.22,1704.24 2729.67,1708.62C2711.18,1731.41 2651.81,1804.67 2627.92,1835.2C2617.7,1848.26 2609.04,1859.2 2603.45,1866.06C2600.52,1869.66 2597.46,1873.37 2593.99,1876.51C2591.76,1878.52 2589.37,1880.3 2586.71,1881.64C2583.02,1883.51 2578.54,1884.95 2573.84,1886C2569.3,1887.02 2564.54,1887.69 2560.07,1888.04C2545.37,1889.14 2524.16,1890.68 2498.87,1892.27C2471.9,1893.97 2440.29,1895.78 2406.99,1897.61C2377,1899.25 2345.64,1900.85 2315.08,1902.38C2269.75,1904.65 2189.94,1910.7 2170.77,1912.18C2168.07,1912.38 2165.57,1913.68 2163.84,1915.76C2137.93,1947 1933.74,2193.18 1897.11,2237.34C1893.53,2241.66 1888.31,2244.27 1882.71,2244.55C1775.96,2249.84 730.75,2301.67 632.686,2306.53C627.929,2306.77 623.412,2308.69 619.948,2311.96C588.055,2342.07 424.842,2496.14 424.842,2496.14C423.448,2497.5 422.121,2499.26 420.977,2501.11C419.546,2503.44 418.426,2505.93 417.808,2507.39C416.805,2509.75 416.27,2513.2 416.711,2515.82C417.295,2519.3 419.125,2522.08 421.926,2524.01C423.125,2524.83 425.289,2525.89 427.872,2526.58C430.276,2527.23 433.083,2527.57 435.346,2527.46C660.901,2516.29 1201.07,2489.91 1808.28,2458.96C2106.95,2443.74 2421.82,2427.46 2723.46,2411.41C2936.92,2400.05 3143.74,2388.77 3333.5,2378.17C3704.15,2357.48 4150.81,2340.62 4282.73,2335.82C4306.16,2334.98 4326.95,2320.58 4335.97,2298.95C4410.89,2119.29 4747.44,1312.21 4816.15,1147.45C4818.8,1141.1 4817.99,1133.82 4814.02,1128.2C4810.04,1122.58 4803.45,1119.4 4796.57,1119.78C4737.93,1123.05 4611.56,1130.23 4531.9,1135.74ZM2369.07,1905.95C2313.4,1909.68 2221.56,1918.41 2188.19,1921.64C2180.12,1922.43 2172.7,1926.4 2167.58,1932.68C2126.76,1982.65 1942.41,2208.35 1907.82,2250.7C1904.25,2255.07 1899.01,2257.73 1893.37,2258.02C1786.25,2263.6 740.531,2318.08 641.493,2323.24C636.645,2323.49 632.055,2325.5 628.578,2328.89C601.678,2355.09 482.222,2471.44 454.489,2498.45C453.592,2499.33 453.332,2500.67 453.837,2501.81C454.343,2502.96 455.507,2503.67 456.758,2503.6C694.263,2489.67 1218.87,2458.25 1806.38,2424.18C2104.93,2406.87 2419.72,2388.83 2721.31,2372C2934.74,2360.09 3141.57,2348.81 3331.35,2338.71C3577.82,2325.59 3795.54,2314.33 3961.63,2305.81C4058.64,2300.84 4188.81,2289.78 4249.35,2284.42C4270.23,2282.55 4288.63,2269.92 4297.87,2251.1C4320.72,2204.58 4364.62,2114.24 4392.59,2050.6C4528.94,1740.37 4753.91,1224.88 4786.16,1150.99C4786.99,1149.08 4786.77,1146.87 4785.59,1145.16C4784.4,1143.45 4782.41,1142.48 4780.33,1142.6C4718.23,1146.04 4588.83,1153.55 4488.4,1159.59C4437.01,1162.68 4385.75,1165.12 4363.43,1166.13C4356.26,1166.46 4349.8,1170.6 4346.53,1176.99C4327.47,1214.18 4261.76,1342.22 4228.64,1404.81C4210.25,1439.56 4182.57,1486.73 4170.96,1506.33C4167.58,1512.03 4161.59,1515.68 4154.98,1516.08C4118.16,1518.31 3994.15,1525.67 3926.47,1528.19C3859.89,1530.67 3789.58,1533.22 3733.47,1535.12L3377.9,1545.84C3373.94,1545.99 3369.63,1546.3 3365.5,1546.82C3361.17,1547.35 3357.04,1548.08 3353.77,1549.08C3351.34,1549.82 3348.84,1550.74 3346.56,1551.98C3344.56,1553.08 3342.7,1554.4 3341.29,1556.13C3334.85,1564.04 3324.38,1577.71 3312.39,1593.62C3294.12,1617.86 3258.6,1665.96 3248.4,1679.78C3246.63,1682.19 3243.87,1683.67 3240.89,1683.83C3193.84,1686.35 2809.09,1706.96 2749.53,1710.15C2744.5,1710.42 2739.76,1712.57 2736.25,1716.18C2728.6,1724.03 2714.88,1738.31 2707.53,1747.36C2674.87,1787.56 2626.11,1848.69 2608.2,1869.98C2605.02,1873.77 2601.69,1877.65 2597.95,1880.94C2595.3,1883.27 2592.46,1885.32 2589.33,1886.87C2585.99,1888.51 2582.09,1889.85 2577.95,1890.89C2572.28,1892.31 2566.16,1893.18 2560.47,1893.56C2539.47,1895.06 2505.2,1897.09 2464.75,1899.66C2435.23,1901.55 2402.42,1903.72 2369.07,1905.95Z" style="fill:rgb(35,45,59);"/>
        </g>
        <g id="Right-Engine" serif:id="Right Engine">
            <path d="M4288.23,1925.6L4269.57,1918.55L4227.06,1920.25L4205.36,1934.38L4154.94,1938.99L4133.48,1953.81L4081.26,1956.92L4071.77,1964.32L4086.28,1975.76L4101.35,1966.97L4149.39,1963.81L4171.76,1947.1L4220.4,1943.71L4242.6,1927.79L4288.23,1925.6Z" style="fill:rgb(50,64,75);"/>
            <path d="M4288.35,1928.07L4288.69,1924.38L4269.79,1917.17L4269.51,1917.19L4226.6,1918.79L4226.26,1919.01L4204.85,1932.89C4204.85,1932.89 4154.35,1937.37 4154.35,1937.37L4153.99,1937.62L4132.9,1952.12C4132.9,1952.12 4080.57,1955.11 4080.57,1955.11L4080.12,1955.46L4068.71,1964.31L4070.6,1965.8L4086.12,1978.1L4087.26,1977.43L4101.94,1968.91C4101.94,1968.91 4150.15,1965.86 4150.15,1965.86L4150.65,1965.49L4172.54,1949.22C4172.54,1949.22 4221.2,1945.95 4221.2,1945.95L4221.73,1945.57L4243.4,1930.11C4243.4,1930.11 4288.35,1928.07 4288.35,1928.07ZM4279.12,1923.59L4241.8,1925.47L4241.23,1925.87L4219.58,1941.48C4219.58,1941.48 4170.97,1944.98 4170.97,1944.98L4170.46,1945.36L4148.63,1961.76C4148.63,1961.76 4100.76,1965.03 4100.76,1965.03L4100.36,1965.27L4086.44,1973.43C4086.44,1973.43 4074.83,1964.32 4074.83,1964.32C4074.83,1964.32 4081.95,1958.74 4081.95,1958.74C4081.95,1958.74 4134.07,1955.51 4134.07,1955.51L4134.47,1955.23L4155.53,1940.6C4155.53,1940.6 4205.88,1935.88 4205.88,1935.88L4206.2,1935.67L4227.53,1921.7C4227.53,1921.7 4269.35,1919.92 4269.35,1919.92L4279.12,1923.59Z" style="fill:rgb(47,58,69);"/>
            <path d="M4158.78,1830.48C4158.88,1830.52 4158.93,1830.62 4158.9,1830.72C4158.87,1830.82 4158.77,1830.88 4158.67,1830.86C4158.04,1830.74 4157.41,1830.62 4156.78,1830.5C4154.95,1830.16 4153.12,1829.88 4151.29,1829.63C4148.59,1829.27 4145.87,1828.96 4143.16,1828.64C4139.89,1828.27 4135.44,1827.67 4131.72,1827.32C4129.69,1827.12 4127.86,1827.01 4126.51,1827.02C4124.97,1827.04 4123.32,1827.24 4121.82,1827.74C4120.6,1828.16 4119.48,1828.79 4118.56,1829.64C4117.59,1830.55 4116.29,1831.95 4114.84,1833.64C4110.54,1838.62 4104.69,1846.17 4101.68,1849.19C4100.81,1850.07 4099.86,1850.99 4098.82,1851.72C4097.97,1852.33 4097.07,1852.83 4096.07,1853.01C4093.42,1853.48 4089.15,1853.93 4084.28,1854.38C4074.69,1855.27 4062.82,1856.13 4056.09,1856.85C4052.13,1857.28 4047.51,1857.82 4043.35,1858.35C4040.04,1858.77 4037.02,1859.18 4034.83,1859.54C4033.08,1859.83 4031.23,1859.99 4029.5,1860.42C4028.12,1860.77 4026.8,1861.26 4025.63,1862.04C4024.14,1863.03 4022.48,1864.47 4020.99,1866.13C4019.58,1867.68 4018.31,1869.42 4017.41,1871.15C4016.47,1872.96 4015.77,1875 4015.28,1877.13C4014.83,1879.14 4014.56,1881.23 4014.44,1883.24C4014.32,1885.23 4014.36,1887.6 4014.51,1890.07C4014.71,1893.5 4015.11,1897.11 4015.56,1900.1C4015.77,1901.55 4016.08,1902.98 4016.43,1904.4C4017.22,1907.6 4018.26,1910.75 4018.97,1913.97L4022.65,1932.32C4022.73,1932.77 4023.16,1933.08 4023.62,1933C4024.07,1932.92 4024.37,1932.49 4024.3,1932.03C4024.3,1932.03 4023.85,1925.73 4024.54,1922.94C4024.86,1921.64 4025.37,1920.6 4025.78,1919.63C4025.89,1919.36 4026.11,1919.15 4026.39,1919.06C4026.67,1918.97 4026.97,1919 4027.22,1919.15C4031.2,1921.5 4036.8,1924.72 4042.67,1927.34C4046.85,1929.2 4051.16,1930.77 4055.14,1931.52C4058.48,1932.15 4062.41,1932.66 4066.42,1932.9C4070.31,1933.13 4074.26,1933.1 4077.82,1932.69C4079.21,1932.53 4080.5,1932.35 4081.71,1932.12C4083.07,1932.01 4084.45,1931.84 4085.82,1931.59C4088.78,1931.05 4091.7,1930.14 4094.27,1928.8C4096.63,1927.55 4099.22,1925.7 4101.76,1923.58C4105.22,1920.69 4108.61,1917.31 4111.26,1914.45C4113.34,1912.18 4115.29,1909.68 4117.05,1907.09C4118.82,1904.47 4120.41,1901.76 4121.79,1899.15C4122.34,1898.12 4122.87,1897.07 4123.37,1896.01C4123.49,1895.77 4123.69,1895.59 4123.94,1895.5C4124.19,1895.41 4124.47,1895.42 4124.71,1895.54C4128.77,1897.49 4134.69,1900.29 4140.84,1902.79C4144.93,1904.45 4149.12,1905.98 4152.94,1907.05C4159.17,1908.79 4167,1910.54 4174.27,1911.72C4179.74,1912.6 4184.89,1913.17 4188.81,1913.18C4191.41,1913.18 4193.92,1912.96 4196.39,1912.64C4200.12,1912.16 4203.77,1911.45 4207.52,1910.94C4212.46,1910.27 4219.67,1908.97 4225.71,1908.05C4228.74,1907.59 4231.48,1907.23 4233.48,1907.09C4234.53,1907.02 4235.93,1907.15 4237.33,1907.35C4238.09,1907.46 4238.86,1907.59 4239.57,1907.73L4057.4,1954.05C4056.87,1954.19 4056.55,1954.73 4056.68,1955.27C4056.82,1955.8 4057.37,1956.12 4057.9,1955.99C4057.9,1955.99 4226.08,1912.34 4240.91,1908.49C4241.51,1908.34 4242.13,1908.34 4242.73,1908.49C4245.46,1909.53 4254.65,1913.26 4260.94,1915.78C4264.97,1917.4 4268.23,1918.66 4268.79,1918.76C4269.1,1918.81 4274.17,1920.26 4275.33,1920.6C4277.16,1921.13 4279.17,1921.73 4281.12,1922.31C4281.6,1922.45 4281.89,1922.91 4281.83,1923.4C4281.77,1923.89 4281.36,1924.25 4280.87,1924.27C4269.34,1924.61 4245.46,1925.33 4242.43,1925.42C4242.22,1925.43 4242.02,1925.5 4241.86,1925.62C4239.59,1927.34 4222.93,1939.96 4220.76,1941.61C4220.6,1941.73 4220.42,1941.79 4220.23,1941.81C4216.35,1942.11 4175.22,1945.27 4171.46,1945.56C4171.28,1945.58 4171.11,1945.64 4170.96,1945.74C4168.7,1947.34 4150.08,1960.48 4147.82,1962.07C4147.68,1962.18 4147.51,1962.24 4147.33,1962.25C4143.64,1962.55 4103.65,1965.77 4100,1966.07C4099.82,1966.08 4099.66,1966.14 4099.51,1966.24C4097.78,1967.43 4086.41,1975.25 4086.41,1975.25C4085.8,1975.66 4085.64,1976.49 4086.05,1977.09C4086.47,1977.7 4087.29,1977.86 4087.9,1977.45C4087.9,1977.45 4097.21,1971.22 4099.85,1969.45C4100.3,1969.15 4100.82,1968.97 4101.37,1968.93C4107.46,1968.51 4145.3,1965.87 4148.92,1965.61C4149.1,1965.6 4149.27,1965.54 4149.42,1965.43C4151.69,1963.84 4170.07,1950.91 4172.33,1949.32C4172.48,1949.21 4172.66,1949.15 4172.84,1949.14C4176.63,1948.88 4217.91,1946.09 4221.78,1945.83C4221.97,1945.82 4222.15,1945.75 4222.3,1945.64C4224.48,1944.04 4241.13,1931.8 4243.39,1930.13C4243.56,1930.01 4243.76,1929.94 4243.96,1929.94C4248.06,1929.85 4290.45,1928.98 4290.45,1928.98C4291.83,1928.95 4292.89,1927.8 4292.89,1926.42C4292.89,1924.21 4289.89,1923.82 4289.89,1923.82C4289.89,1923.82 4280.76,1921.02 4275.66,1919.49C4275.29,1919.38 4274.78,1919.23 4274.33,1919.1C4273.66,1918.9 4273.07,1918.53 4272.59,1918.02C4269.55,1914.74 4257.9,1902.18 4257.9,1902.18L4243.07,1886.97L4224.98,1868.78C4223.72,1867.57 4222.42,1866.38 4221.11,1865.21C4219.16,1863.48 4217.17,1861.78 4215.18,1860.09C4212.78,1858.04 4209.91,1855.43 4206.96,1852.94C4205,1851.3 4203,1849.71 4201.08,1848.37C4199.1,1847 4192.51,1843.08 4191.29,1842.27C4187.9,1840.03 4182.89,1836.38 4178.71,1833.82C4177.75,1833.23 4175.31,1832.1 4172.38,1830.85C4166.96,1828.53 4159.82,1825.71 4157.88,1825C4107.3,1806.6 4061.72,1790.18 4014.07,1775.37C3983.01,1765.72 3951.06,1756.74 3916.28,1748.34C3899.84,1744.38 3884.21,1740.9 3868.77,1737.94C3852.78,1734.87 3836.98,1732.36 3820.69,1730.44C3795.7,1727.49 3770.66,1724.71 3745.57,1722.61C3728.84,1721.21 3712.08,1720.11 3695.3,1719.47C3689.27,1719.23 3683.25,1719.57 3677.24,1720.19C3668.31,1721.11 3659.41,1722.66 3650.54,1723.92C3630.82,1726.73 3611.38,1730.89 3592.16,1735.96C3572.96,1741.02 3553.99,1747 3535.2,1753.43C3534.88,1753.54 3534.71,1753.88 3534.82,1754.2C3534.93,1754.52 3535.27,1754.69 3535.59,1754.59C3554.38,1748.27 3573.35,1742.41 3592.55,1737.46C3611.73,1732.51 3631.13,1728.47 3650.8,1725.79C3659.65,1724.58 3668.53,1723.08 3677.44,1722.21C3683.36,1721.63 3689.28,1721.33 3695.21,1721.59C3711.95,1722.33 3728.67,1723.52 3745.36,1725.01C3770.41,1727.25 3795.4,1730.16 3820.35,1733.25C3836.56,1735.25 3852.27,1737.84 3868.18,1740.98C3883.55,1744.01 3899.11,1747.57 3915.48,1751.61C3950.14,1760.18 3981.96,1769.31 4012.9,1779.12C4060.4,1794.18 4105.83,1810.83 4156.23,1829.48C4156.75,1829.68 4157.65,1830.02 4158.78,1830.48ZM4056,1863.38C4056.15,1863.06 4056.12,1862.67 4055.92,1862.38C4055.71,1862.09 4055.37,1861.92 4055.01,1861.96C4052.25,1862.2 4046.87,1862.67 4043.88,1862.97C4040.62,1863.3 4037.65,1863.62 4035.49,1863.92C4033.84,1864.14 4032.1,1864.23 4030.46,1864.59C4029.55,1864.78 4028.66,1865.05 4027.88,1865.54C4026.6,1866.33 4025.19,1867.49 4023.9,1868.84C4023.88,1868.86 4023.75,1869.01 4023.59,1869.19C4023.03,1869.8 4022.9,1870.69 4023.27,1871.44C4024.57,1874.04 4027.61,1880.28 4028.42,1883.5C4029.98,1889.69 4030.37,1900.16 4028.96,1907.16C4028.36,1910.17 4027.69,1913.77 4026.77,1916.83C4026.63,1917.28 4026.82,1917.76 4027.23,1917.99C4031.24,1920.29 4037.07,1923.55 4043.18,1926.17C4047.28,1927.93 4051.51,1929.39 4055.4,1930.07C4058.7,1930.63 4062.57,1931.07 4066.5,1931.24C4068.01,1931.31 4069.54,1931.34 4071.04,1931.31C4070.46,1931.17 4069.89,1931.01 4069.32,1930.84C4066.59,1930.02 4064.03,1928.93 4062.06,1927.83C4060.26,1926.82 4058.62,1925.49 4057.19,1923.95C4055.81,1922.45 4054.63,1920.76 4053.7,1918.99C4052.83,1917.35 4052.06,1915.36 4051.4,1913.2C4050.54,1910.38 4049.86,1907.29 4049.41,1904.45C4049,1901.88 4048.71,1899.11 4048.59,1896.32C4048.47,1893.55 4048.49,1890.75 4048.72,1888.12C4048.95,1885.5 4049.42,1882.84 4050.03,1880.25C4050.65,1877.64 4051.4,1875.09 4052.16,1872.7C4052.71,1871.01 4053.43,1869.15 4054.21,1867.34C4054.8,1865.96 4055.42,1864.61 4056,1863.38ZM4119.35,1839.23C4119.16,1839.03 4118.89,1838.93 4118.61,1838.94C4118.33,1838.95 4118.07,1839.08 4117.89,1839.29C4113.69,1844.24 4108.58,1850.61 4105.83,1853.35C4104.46,1854.69 4102.94,1856.06 4101.27,1857.06C4099.94,1857.85 4098.53,1858.43 4097.03,1858.68C4094.27,1859.13 4089.82,1859.55 4084.74,1859.94C4077.38,1860.49 4068.66,1860.97 4061.96,1861.42C4060.84,1861.5 4059.86,1862.19 4059.41,1863.22C4058.74,1864.78 4057.96,1866.65 4057.23,1868.57C4056.57,1870.31 4055.96,1872.08 4055.51,1873.7C4054.87,1876.03 4054.25,1878.51 4053.75,1881.05C4053.28,1883.48 4052.93,1885.96 4052.8,1888.4C4052.68,1890.86 4052.75,1893.46 4052.96,1896.04C4053.18,1898.66 4053.54,1901.25 4054.01,1903.64C4054.43,1905.82 4054.99,1908.16 4055.68,1910.38C4056.39,1912.68 4057.23,1914.85 4058.19,1916.55C4058.95,1917.91 4059.91,1919.2 4061.01,1920.34C4062.08,1921.45 4063.3,1922.39 4064.63,1923.1C4066.33,1924 4068.53,1924.87 4070.86,1925.53C4072.99,1926.12 4075.24,1926.53 4077.34,1926.56C4079.65,1926.61 4082.22,1926.43 4084.76,1925.95C4087.15,1925.49 4089.5,1924.77 4091.57,1923.67C4093.63,1922.59 4095.87,1920.97 4098.1,1919.14C4101.4,1916.45 4104.67,1913.32 4107.22,1910.65C4109.16,1908.62 4110.98,1906.36 4112.64,1904.03C4114.36,1901.6 4115.92,1899.11 4117.28,1896.69C4118.56,1894.42 4119.76,1892.07 4120.78,1889.65C4121.78,1887.27 4122.62,1884.83 4123.17,1882.32C4123.88,1879.09 4124.57,1874.8 4125.04,1870.47C4125.51,1866.2 4125.79,1861.9 4125.64,1858.56C4125.53,1855.95 4124.95,1853.02 4124.21,1850.27C4123.35,1847.04 4122.28,1844.06 4121.48,1842.1C4121.2,1841.39 4120.7,1840.7 4120.15,1840.07C4119.89,1839.78 4119.62,1839.5 4119.35,1839.23ZM4021.29,1875.67C4021.11,1875.32 4020.74,1875.11 4020.34,1875.13C4019.95,1875.16 4019.6,1875.41 4019.47,1875.79C4019.21,1876.5 4018.98,1877.24 4018.79,1877.99C4018.32,1879.8 4018.01,1881.68 4017.85,1883.5C4017.68,1885.37 4017.64,1887.6 4017.71,1889.93C4017.8,1893.27 4018.07,1896.8 4018.41,1899.73C4018.56,1901.1 4018.8,1902.45 4019.08,1903.8C4019.76,1907.04 4020.68,1910.25 4021.28,1913.51L4022.06,1918.33C4023.19,1915.11 4024.45,1911.54 4024.98,1906.81C4025.67,1900.63 4025.58,1890.34 4024.47,1884.15C4023.97,1881.38 4022.61,1878.25 4021.29,1875.67ZM4171.57,1839.66C4176.69,1843.79 4184.13,1849.81 4191.39,1855.89C4196.37,1860.07 4201.27,1864.27 4205.27,1867.92C4208.86,1871.19 4212.74,1874.98 4216.51,1878.78C4222.83,1885.15 4228.87,1891.55 4232.81,1895.57C4234.1,1896.89 4235.53,1898.4 4236.94,1899.89C4238.82,1901.9 4241.87,1905.33 4243.07,1906.67C4243.4,1907.04 4243.81,1907.34 4244.27,1907.53C4246.71,1908.56 4255.04,1912.05 4261.4,1914.64C4265.31,1916.23 4268.46,1917.49 4269.01,1917.59C4269.15,1917.62 4269.46,1917.69 4269.89,1917.81L4256.2,1903.85L4240.96,1889.11L4222.4,1871.54C4221.14,1870.39 4219.85,1869.28 4218.54,1868.18C4216.56,1866.51 4214.55,1864.89 4212.54,1863.26C4210.1,1861.28 4207.17,1858.76 4204.16,1856.36C4202.27,1854.86 4200.34,1853.4 4198.49,1852.18C4196.62,1850.94 4193.86,1849.37 4192.31,1848.59C4191.68,1848.27 4185.72,1845.16 4183.98,1844.38C4181.58,1843.29 4179.03,1842.28 4176.49,1841.35C4174.83,1840.74 4173.17,1840.18 4171.57,1839.66ZM4170.21,1839.24C4169.73,1839.09 4169.26,1838.94 4168.8,1838.81C4167.12,1838.31 4165.42,1837.88 4163.7,1837.49C4161.08,1836.91 4158.44,1836.44 4155.81,1836C4154.07,1835.7 4152.32,1835.47 4150.57,1835.26C4147.9,1834.94 4145.21,1834.69 4142.53,1834.42C4139.28,1834.08 4134.87,1833.54 4131.19,1833.22C4129.39,1833.07 4127.78,1832.96 4126.59,1832.98C4125.8,1833 4124.95,1833.07 4124.16,1833.28C4123.6,1833.43 4123.05,1833.64 4122.64,1834.02C4122.23,1834.41 4121.76,1834.9 4121.23,1835.47C4121.05,1835.67 4120.95,1835.93 4120.96,1836.2C4120.98,1836.46 4121.09,1836.72 4121.29,1836.89C4121.68,1837.24 4122.06,1837.6 4122.43,1837.99C4123.26,1838.86 4123.98,1839.84 4124.43,1840.84C4125.5,1843.21 4127.01,1847.04 4128.11,1851.04C4128.79,1853.5 4129.3,1856.03 4129.48,1858.33C4129.76,1861.84 4129.65,1866.37 4129.3,1870.87C4128.96,1875.39 4128.38,1879.87 4127.74,1883.25C4127.22,1886.06 4126.38,1888.81 4125.34,1891.49C4125.22,1891.8 4125.1,1892.11 4124.97,1892.41C4124.77,1892.9 4124.99,1893.46 4125.46,1893.69C4129.49,1895.65 4135.4,1898.49 4141.56,1901.03C4145.57,1902.69 4149.68,1904.22 4153.44,1905.29C4159.6,1907.05 4167.35,1908.82 4174.55,1910.03C4179.91,1910.93 4184.97,1911.52 4188.82,1911.54C4191.34,1911.56 4193.78,1911.36 4196.19,1911.06C4199.92,1910.6 4203.57,1909.91 4207.32,1909.42C4212.25,1908.77 4219.46,1907.52 4225.5,1906.63C4228.58,1906.18 4231.36,1905.83 4233.39,1905.71C4234.52,1905.64 4236.02,1905.77 4237.52,1906C4239.2,1906.25 4240.87,1906.6 4242.01,1906.86C4240.6,1905.3 4238.45,1902.93 4236.24,1900.55C4234.85,1899.05 4233.43,1897.54 4232.14,1896.22C4228.22,1892.17 4222.22,1885.75 4215.93,1879.35C4212.18,1875.54 4208.34,1871.75 4204.77,1868.47C4200.79,1864.8 4195.92,1860.58 4190.97,1856.39C4183.24,1849.85 4175.3,1843.38 4170.21,1839.24Z" style="fill:rgb(35,45,59);"/>
        </g>
        <g id="Left-Engine" serif:id="Left Engine">
            <path d="M3350.93,2243.39C3352.87,2242.38 3354.7,2240.55 3356.4,2237.83L3372.71,2218.38L3421.94,2208.98L3445.2,2186.7L3494.86,2177.35L3516.69,2154.63L3567.01,2144.85L3585.51,2124.86L3603.49,2132.9L3582.36,2154.64L3532.28,2165.25L3509.95,2187.18L3458.87,2195.8L3438.49,2217.65L3386.62,2227.04L3364.35,2250.22L3350.93,2243.39Z" style="fill:rgb(50,64,75);stroke:rgb(47,58,69);stroke-width:2px;stroke-linejoin:miter;"/>
            <path d="M3059.45,1907.19C3059.45,1907.17 3028.76,1914.83 3014.03,1919.15C3003.93,1922.12 2993.97,1925.24 2984.17,1928.55C2975.87,1931.36 2967.69,1934.3 2959.63,1937.39C2951.45,1940.53 2943.4,1943.83 2935.49,1947.3C2919.36,1954.38 2903.81,1962.16 2888.92,1970.79C2866.2,1983.95 2845,1999.06 2825.66,2016.63C2825.64,2016.65 2825.57,2016.76 2825.6,2016.83C2825.74,2017.14 2826.12,2017.34 2827.05,2017.76C2827.88,2018.13 2921.21,2046.73 2963.58,2062.13C2993.5,2073.01 3022.43,2084.41 3050.49,2096.15C3077.97,2107.65 3104.6,2119.51 3130.5,2131.56C3143.87,2137.78 3157.04,2144.03 3170.03,2150.32C3183.3,2156.74 3196.37,2163.2 3209.28,2169.67C3230.49,2180.32 3251.23,2191.02 3271.55,2201.7C3301.84,2217.62 3358.68,2248.38 3364.02,2251.27C3364.26,2251.4 3364.56,2251.35 3364.74,2251.16C3367.28,2248.48 3384.31,2230.52 3386.5,2228.2C3386.65,2228.05 3386.85,2227.94 3387.07,2227.91C3391.29,2227.22 3434.2,2220.32 3438.46,2219.63C3438.68,2219.6 3438.88,2219.49 3439.03,2219.33C3441.16,2217.02 3457.16,2199.74 3459.28,2197.45C3459.43,2197.28 3459.63,2197.18 3459.85,2197.14C3464.06,2196.44 3506.22,2189.47 3510.27,2188.8C3510.47,2188.76 3510.66,2188.66 3510.81,2188.52C3513.03,2186.33 3530.84,2168.76 3533.03,2166.6C3533.17,2166.46 3533.35,2166.36 3533.55,2166.33C3537.52,2165.61 3578.95,2158.17 3582.88,2157.47C3583.08,2157.43 3583.26,2157.34 3583.4,2157.2C3585.48,2155.18 3601.75,2139.41 3605.17,2135.7C3605.63,2135.2 3605.48,2134.23 3605.12,2133.65C3602.99,2130.15 3597.12,2121.05 3592.35,2114.69C3589.17,2110.46 3585.85,2106.27 3582.68,2102.71C3576.7,2095.98 3570.39,2088.61 3562.97,2081.42C3560.7,2079.22 3551.55,2072.62 3541.47,2066.93C3531.62,2061.36 3520.86,2056.68 3517.05,2054.9C3511.91,2052.48 3501.91,2047.07 3501.91,2047.07C3490.96,2041.61 3479.35,2035.85 3467.98,2030.52C3460.07,2026.81 3452.28,2023.33 3444.99,2020.16C3429.75,2013.72 3411.82,2005.71 3392.28,1997.52C3375.37,1990.42 3357.26,1983.19 3338.89,1976.21C3314.49,1966.95 3289.57,1958.33 3266.19,1951.53C3247.1,1946.02 3225.83,1941 3203.93,1936.36C3152.44,1925.46 3097.45,1916.53 3059.45,1907.19ZM3526.21,2063.2C3526.03,2063.12 3525.82,2063.17 3525.71,2063.33C3525.6,2063.49 3525.62,2063.7 3525.75,2063.84C3531.23,2069.45 3538.49,2076.91 3545.28,2083.99C3551.05,2090 3556.47,2095.72 3560.17,2099.8C3562.33,2102.18 3564.65,2104.95 3566.89,2107.72C3569.21,2110.58 3574.73,2117.7 3576.09,2119.47C3576.3,2119.74 3576.56,2119.97 3576.85,2120.15C3577.6,2120.64 3579.08,2121.6 3579.3,2121.71C3582.32,2123.31 3585.23,2125.25 3585.41,2125.37L3601.45,2132.53L3585.25,2125.64C3585.25,2125.64 3582.26,2123.63 3579.13,2122.03C3577.6,2121.24 3576.03,2120.56 3574.78,2120.27C3574.19,2120.13 3573.55,2119.81 3572.95,2120.04C3572.7,2120.13 3367.99,2206.31 3356.01,2211.35C3355.67,2211.49 3355.44,2211.81 3355.4,2212.17C3355.1,2215.11 3354.76,2218.16 3354.39,2221.18C3353.52,2228.47 3352,2239.42 3351.57,2242.47C3351.45,2242.91 3351.64,2243.39 3352.05,2243.61C3355.86,2245.74 3359.93,2247.78 3363.7,2249.91C3363.95,2250.04 3364.25,2249.99 3364.44,2249.79C3366.96,2247.02 3383.48,2228.91 3385.63,2226.55C3385.78,2226.39 3385.98,2226.28 3386.2,2226.24C3390.43,2225.51 3433.03,2218.18 3437.27,2217.45C3437.49,2217.42 3437.69,2217.31 3437.84,2217.14C3439.95,2214.81 3455.85,2197.25 3457.95,2194.93C3458.1,2194.76 3458.3,2194.65 3458.52,2194.62C3462.71,2193.87 3504.62,2186.46 3508.65,2185.74C3508.85,2185.71 3509.04,2185.61 3509.18,2185.46C3511.37,2183.27 3528.9,2165.65 3531.05,2163.49C3531.19,2163.35 3531.37,2163.25 3531.57,2163.21C3535.51,2162.44 3576.85,2154.37 3580.8,2153.6C3580.99,2153.56 3581.18,2153.46 3581.32,2153.32C3583.53,2151.08 3601.95,2132.48 3601.95,2132.48C3601.96,2132.47 3601.97,2132.46 3601.99,2132.44C3602.34,2132.1 3602.38,2131.54 3602.09,2131.14C3600.32,2128.73 3594.53,2120.86 3590.67,2115.99C3587.43,2111.89 3584.04,2107.84 3580.83,2104.4C3574.74,2097.87 3568.3,2090.7 3560.76,2083.75C3558.33,2081.51 3548.24,2075.01 3539.1,2069.87C3533.85,2066.92 3528.87,2064.47 3526.21,2063.2ZM3059.45,1907.23C3059.44,1907.24 3056.87,1907.89 3055.59,1908.21C3041.55,1911.8 3027.74,1915.61 3014.18,1919.68C3004.11,1922.71 2994.18,1925.88 2984.4,1929.23C2976.96,1931.78 2969.6,1934.43 2962.34,1937.19C2957.45,1939.05 2952.6,1940.96 2947.8,1942.93C2935.62,1947.91 2923.73,1953.25 2912.18,1959C2899.64,1965.26 2887.5,1972 2875.8,1979.32C2858.18,1990.34 2841.56,2002.65 2826.09,2016.52C2826.04,2016.57 2826.02,2016.64 2826.03,2016.71C2826.05,2016.78 2826.1,2016.84 2826.17,2016.86C2826.48,2016.95 2826.74,2017.03 2826.94,2017.09C2828.46,2017.6 2944.94,2052.26 2997.32,2071.89C3034.85,2085.95 3070.82,2100.8 3105.42,2116.21C3123.46,2124.25 3141.13,2132.43 3158.44,2140.75C3176.24,2149.3 3193.67,2157.99 3210.76,2166.74C3231.91,2177.57 3252.55,2188.51 3272.74,2199.47C3298.76,2213.59 3324.03,2227.76 3348.72,2241.73C3349.01,2241.9 3349.37,2241.91 3349.67,2241.75C3349.97,2241.6 3350.17,2241.3 3350.21,2240.97C3350.75,2235.82 3351.52,2228.46 3352.17,2220.95C3352.61,2215.91 3352.99,2210.82 3353.23,2206.27C3353.78,2195.92 3353.64,2183.16 3353.93,2170.57C3354.05,2165.35 3354.25,2160.16 3354.59,2155.18C3355.53,2142.17 3351.65,2123.18 3353.48,2108.17C3354.46,2100.12 3357.09,2093.18 3362.41,2088.51C3366.21,2085.19 3371.99,2082.97 3378.94,2081.58C3388.73,2079.61 3400.91,2079.16 3412.57,2078.81C3425.29,2078.43 3437.38,2078.22 3444.79,2075.76C3446.98,2075.04 3449.05,2073.82 3451.03,2072.33C3456.87,2067.92 3461.95,2061.25 3466.77,2056.53C3469.85,2053.51 3472.88,2051.26 3475.84,2050.43C3480.86,2049.04 3487.91,2049.09 3495.74,2050.14L3441.83,2027.83C3424.2,2020.72 3402.81,2011.96 3379.88,2002.43C3360.04,1994.19 3339.05,1985.36 3318.03,1977.22C3299.8,1970.17 3281.61,1963.51 3264.22,1957.98C3245.43,1951.97 3224.45,1946.42 3202.84,1941.14C3151.71,1928.65 3097.11,1917.82 3059.45,1907.23ZM3570.05,2120.33C3570.22,2120.26 3570.32,2120.08 3570.29,2119.89C3570.26,2119.71 3570.11,2119.57 3569.93,2119.56C3569.14,2119.5 3568.33,2119.46 3567.51,2119.44C3565.06,2119.39 3562.54,2119.51 3560.2,2119.8C3557.91,2120.08 3555.37,2120.57 3552.76,2121.2C3549.11,2122.06 3545.31,2123.18 3541.8,2124.3C3537.02,2125.83 3532.39,2128.37 3527.73,2130.16C3526.51,2130.62 3525.28,2131.04 3524.05,2131.38C3520.57,2132.32 3517,2133.2 3513.41,2133.68C3510.97,2133.99 3508.52,2134.12 3506.08,2133.96C3503.49,2133.78 3500.64,2133.23 3497.77,2132.5C3493.58,2131.43 3489.34,2129.98 3485.8,2128.77C3483.8,2128.09 3481.61,2127.17 3479.47,2126.2C3476.53,2124.88 3473.7,2123.45 3471.61,2122.37C3471.13,2122.13 3470.55,2122.3 3470.28,2122.77C3465.74,2130.79 3459.71,2140.43 3451.58,2147.55C3446.57,2151.94 3440.76,2155.36 3434.11,2157.01C3431.52,2157.95 3428.05,2158.93 3423.47,2159.32C3419.66,2159.64 3415.06,2159.57 3409.55,2158.69C3404.89,2157.95 3398.79,2155.98 3392.52,2153.57C3385.23,2150.76 3377.7,2147.37 3372.01,2144.75C3371.76,2144.63 3371.47,2144.62 3371.22,2144.73C3370.96,2144.83 3370.76,2145.03 3370.66,2145.29C3368.37,2151.11 3364.95,2155.44 3360.3,2158.67C3359.97,2158.9 3359.61,2159.03 3359.24,2159.09C3358.79,2159.15 3358.44,2159.52 3358.41,2159.97C3358.09,2163.49 3357.87,2167.1 3357.68,2170.72C3357.03,2183.32 3356.79,2196.1 3355.94,2206.46C3355.88,2207.22 3355.81,2208 3355.74,2208.79C3355.7,2209.14 3355.86,2209.48 3356.14,2209.69C3356.42,2209.9 3356.79,2209.94 3357.12,2209.8C3375.49,2202.09 3552.14,2127.86 3570.05,2120.33ZM3402.31,2086.84C3402.58,2086.54 3402.64,2086.11 3402.47,2085.75C3402.3,2085.39 3401.93,2085.17 3401.53,2085.18C3396.91,2085.38 3392.35,2085.66 3388.05,2086.12C3378.76,2087.11 3370.68,2088.79 3366.05,2092.74C3364.67,2093.91 3363.52,2095.28 3362.57,2096.81C3362.43,2097.04 3362.39,2097.31 3362.45,2097.57C3362.51,2097.83 3362.68,2098.05 3362.91,2098.19C3368.83,2101.81 3374.58,2108.62 3374.27,2123.52C3374.12,2130.36 3373.41,2136.14 3372.07,2141.04C3371.93,2141.52 3372.18,2142.03 3372.64,2142.23C3378.43,2144.65 3386.18,2147.82 3393.68,2150.39C3399.75,2152.48 3405.63,2154.17 3410.1,2154.72L3410.18,2154.72C3410.11,2154.69 3410.04,2154.66 3409.98,2154.62C3403.03,2150.93 3398.25,2144.81 3395.19,2138.61C3391.88,2131.84 3390.89,2120.68 3392.72,2109.8C3394.17,2101.14 3397.36,2092.68 3402.31,2086.84ZM3361.23,2103.08C3360.96,2102.9 3360.63,2102.86 3360.33,2102.97C3360.03,2103.09 3359.8,2103.33 3359.72,2103.64C3359.27,2105.3 3358.93,2107.04 3358.67,2108.85C3356.8,2122.09 3359.3,2138.54 3359.02,2151.08C3359,2151.49 3359.23,2151.86 3359.61,2152.03C3359.98,2152.2 3360.41,2152.12 3360.71,2151.84C3366.47,2145.99 3368.98,2137 3369.27,2123.41C3369.51,2111.98 3365.66,2106.22 3361.23,2103.08ZM3469.95,2065.16C3469.8,2064.85 3469.49,2064.22 3469.2,2063.63C3469.06,2063.33 3468.77,2063.12 3468.43,2063.08C3468.1,2063.03 3467.77,2063.16 3467.55,2063.41C3465.08,2066.27 3458.55,2073.66 3454.48,2076.83C3452,2078.76 3449.39,2080.3 3446.63,2081.24C3440.82,2083.22 3432.29,2084.03 3422.78,2084.45C3418.04,2084.66 3413.06,2084.78 3408.05,2084.94C3407.84,2084.95 3407.68,2085.11 3407.67,2085.32C3407.65,2085.71 3407.48,2086.09 3407.17,2086.38C3401.38,2091.83 3398.09,2101.06 3396.85,2110.42C3395.55,2120.27 3396.52,2130.32 3399.7,2136.32C3402.43,2141.53 3406.56,2146.67 3412.53,2149.72C3417.32,2152.16 3423.31,2153.2 3430.72,2151.85C3437.34,2150.69 3442.98,2147.43 3447.87,2143.26C3455.95,2136.36 3461.99,2126.92 3466.5,2119.26C3469.83,2113.64 3472,2106.19 3473.25,2098.92C3474.71,2090.39 3474.92,2082.12 3474.07,2077.29C3473.63,2074.76 3472.91,2072.35 3472.12,2070.22C3471.39,2068.27 3470.61,2066.55 3469.95,2065.16ZM3519.19,2060.11C3517.74,2059.48 3514.74,2058.82 3512.49,2058.24C3499.05,2054.8 3485.31,2053.03 3477.27,2055.42C3475.74,2055.87 3473.48,2057.69 3472.08,2058.9C3471.36,2059.49 3471.15,2060.52 3471.59,2061.36C3471.68,2061.56 3471.78,2061.75 3471.87,2061.92C3472.72,2063.49 3474.06,2065.97 3475.3,2068.98C3476.24,2071.26 3477.11,2073.86 3477.68,2076.6C3478.75,2081.7 3478.87,2090.49 3477.59,2099.6C3476.62,2106.48 3474.82,2113.52 3472.1,2119.31C3471.87,2119.79 3472.06,2120.37 3472.53,2120.62C3474.59,2121.71 3477.37,2123.17 3480.25,2124.52C3482.32,2125.49 3484.44,2126.42 3486.39,2127.11C3489.87,2128.36 3494.04,2129.86 3498.17,2130.97C3500.94,2131.72 3503.69,2132.3 3506.19,2132.51C3508.53,2132.7 3510.89,2132.61 3513.24,2132.34C3516.79,2131.92 3520.31,2131.1 3523.75,2130.22C3524.95,2129.91 3526.14,2129.53 3527.33,2129.09C3532.03,2127.37 3536.71,2124.89 3541.53,2123.42C3545.07,2122.35 3548.91,2121.28 3552.59,2120.46C3555.24,2119.88 3557.81,2119.41 3560.13,2119.16C3562.5,2118.91 3565.05,2118.82 3567.53,2118.91C3570.16,2119.01 3572.71,2119.31 3574.88,2119.85C3575.19,2119.93 3575.53,2120.03 3575.87,2120.15C3573.62,2117.3 3570.04,2112.76 3566.25,2108.25C3563.97,2105.53 3561.61,2102.83 3559.42,2100.5C3555.65,2096.49 3550.13,2090.87 3544.27,2084.98C3535.93,2076.6 3525.37,2066.18 3521.19,2062.03C3520.54,2061.38 3520.04,2060.48 3519.19,2060.11Z" style="fill:rgb(35,45,59);"/>
        </g>
        <g id="Right-Engine-Back1" serif:id="Right Engine Back">
            <path d="M3368.4,1601.57C3368.4,1601.57 3345.96,1625.91 3341.57,1630.67C3341.11,1631.17 3340.42,1631.4 3339.75,1631.28C3324.22,1628.56 3304.74,1625.15 3289.26,1622.77C3288.91,1622.72 3288.59,1622.95 3288.53,1623.3C3288.48,1623.64 3288.71,1623.97 3289.06,1624.02C3303.96,1626.57 3322.6,1630.13 3337.74,1633.05C3338.31,1633.16 3338.81,1633.51 3339.1,1634.02C3339.38,1634.52 3339.44,1635.13 3339.24,1635.68C3337.76,1639.85 3334.59,1648.83 3333.4,1652.18C3333.09,1653.04 3332.62,1653.83 3332.01,1654.51C3326.42,1660.69 3297.29,1692.91 3294.26,1696.25C3294.1,1696.43 3293.88,1696.55 3293.63,1696.58C3289.75,1697.01 3257.15,1700.69 3257.15,1700.69C3256.92,1700.72 3256.75,1700.92 3256.77,1701.15C3256.8,1701.39 3257.01,1701.55 3257.24,1701.53C3257.24,1701.53 3290.69,1698.35 3294.65,1697.97C3294.9,1697.95 3295.13,1697.83 3295.3,1697.65C3298.48,1694.18 3329.92,1659.92 3334.27,1655.18C3334.57,1654.86 3335.04,1654.77 3335.43,1654.95C3345.48,1659.7 3466,1716.61 3481.2,1723.79C3481.54,1723.95 3481.76,1724.28 3481.78,1724.65C3481.79,1725.03 3481.6,1725.38 3481.27,1725.56C3480.85,1725.81 3480.47,1726.01 3480.12,1726.15C3475.18,1728.11 3470.44,1729.27 3465.65,1729.91C3460.76,1730.56 3455.84,1730.67 3450.64,1730.53C3450.53,1730.52 3450.43,1730.61 3450.43,1730.73C3450.42,1730.84 3450.51,1730.94 3450.63,1730.95C3455.85,1731.17 3460.81,1731.14 3465.73,1730.57C3470.59,1730 3475.52,1729.14 3480.45,1727C3483.34,1725.73 3484.77,1724.21 3485.1,1723.94C3485.36,1723.73 3492.12,1717.51 3495.76,1713.7C3507.35,1701.55 3521.21,1684.81 3525.4,1679.7C3525.66,1679.39 3526.08,1679.26 3526.47,1679.38C3537.25,1682.69 3548.64,1685.93 3559.35,1689.48C3559.66,1689.58 3559.91,1689.83 3560,1690.15C3560.09,1690.47 3560.02,1690.81 3559.81,1691.06C3553.51,1698.72 3546.03,1707.34 3539.41,1714.8C3533.4,1721.56 3527.56,1727.55 3522.39,1731.42C3518.94,1734.01 3514.97,1735.72 3510.78,1736.95C3504.41,1738.83 3497.55,1739.63 3491.17,1740.71C3490.83,1740.76 3490.59,1741.08 3490.64,1741.43C3490.69,1741.77 3491.01,1742.01 3491.35,1741.96C3497.86,1741.2 3504.83,1740.72 3511.37,1739.15C3515.93,1738.06 3520.26,1736.42 3524.1,1733.83C3529.61,1730.12 3535.94,1724.28 3542.46,1717.64C3550.83,1709.12 3559.5,1699.27 3567.1,1690.93C3567.84,1690.08 3568.24,1688.89 3567.88,1687.85C3567.53,1686.83 3566.69,1686.11 3565.66,1685.77C3521.54,1671.62 3476.5,1659.63 3430.72,1649.38C3403.42,1643.27 3375.45,1637.67 3347.63,1632.69C3346.9,1632.56 3346.3,1632.04 3346.08,1631.33C3345.85,1630.63 3346.03,1629.85 3346.55,1629.32C3354.12,1621.61 3375.24,1600.08 3375.24,1600.08C3375.99,1599.28 3375.96,1598.01 3375.16,1597.25C3375.01,1597.11 3374.85,1597 3374.68,1596.92C3374.22,1596.54 3373.59,1596.37 3372.96,1596.52L3291.62,1616.94C3291.39,1617 3291.25,1617.22 3291.31,1617.45C3291.36,1617.68 3291.58,1617.82 3291.81,1617.77L3368.4,1601.57ZM3344.73,1634.4C3343.78,1634.22 3342.84,1634.73 3342.49,1635.62C3340.9,1639.62 3336.68,1650.24 3335.49,1653.23C3335.32,1653.68 3335.52,1654.18 3335.96,1654.38C3347.14,1659.46 3474.85,1717.41 3484.74,1721.9C3485.11,1722.07 3485.55,1722 3485.84,1721.73C3487.36,1720.3 3492.09,1715.84 3494.86,1712.85C3505.43,1701.4 3517.9,1685.95 3522.88,1679.71C3523.09,1679.45 3523.15,1679.1 3523.05,1678.79C3522.95,1678.47 3522.71,1678.22 3522.39,1678.13C3491.96,1668.82 3461.11,1660.47 3429.9,1652.92C3401.78,1646.12 3373.38,1639.98 3344.73,1634.4Z" style="fill:rgb(35,45,59);"/>
        </g>
        <g id="Left-Engine-Back1" serif:id="Left Engine Back">
            <path d="M2897.73,1872.04C2895.8,1871.57 2893.77,1872.29 2892.57,1873.88C2884.19,1885.04 2851.67,1928.22 2848.15,1931.31C2843.66,1935.24 2836.21,1938.47 2829.5,1939.55C2800.93,1944.16 2683.01,1958.76 2664.26,1961.08C2663.98,1961.11 2663.76,1961.33 2663.73,1961.61C2663.7,1961.88 2663.87,1962.14 2664.13,1962.24C2669.15,1964.02 2675.84,1966.42 2680.97,1968.27C2685.24,1970.15 2689.96,1970.8 2694.59,1970.16C2731.98,1965.02 2866.59,1946.34 2866.6,1946.34C2872.8,1944.77 2878.32,1942.11 2883.24,1938.53C2888.15,1934.95 2892.48,1930.45 2896.33,1925.18C2896.33,1925.18 2920.45,1891.24 2927.14,1881.83C2927.53,1881.29 2927.62,1880.59 2927.39,1879.97C2927.16,1879.35 2926.64,1878.88 2925.99,1878.73C2916.39,1876.38 2907.32,1874.35 2897.73,1872.04ZM2693.59,1851.84C2693.17,1851.62 2692.66,1851.72 2692.36,1852.07C2687.52,1857.69 2650.53,1900.65 2643.66,1908.63C2642.95,1909.45 2641.95,1909.95 2640.88,1910.02C2627.88,1910.85 2543.24,1916.31 2525.77,1917.44C2525.53,1917.45 2525.33,1917.64 2525.31,1917.89C2525.28,1918.13 2525.44,1918.36 2525.68,1918.42C2529.63,1919.43 2533.58,1920.48 2537.52,1921.54C2575.03,1931.67 2612.12,1943.96 2649.08,1956.92C2649.18,1956.96 2649.28,1956.97 2649.38,1956.95C2654.96,1956.32 2798,1940.18 2829.01,1936.32C2832.43,1935.89 2836.01,1934.64 2838.91,1933.31C2839.76,1932.92 2840.56,1932.51 2841.34,1932.06C2841.65,1931.88 2841.84,1931.54 2841.83,1931.18C2841.83,1930.82 2841.62,1930.49 2841.3,1930.32C2826.19,1922.29 2703.99,1857.37 2693.59,1851.84ZM2701.94,1828.83C2701.45,1828.74 2700.97,1829.02 2700.81,1829.49C2699.67,1832.87 2695.33,1845.69 2694.18,1849.08C2694.02,1849.55 2694.23,1850.07 2694.68,1850.29C2705.95,1855.93 2835.93,1921.04 2846.79,1926.48C2847.21,1926.69 2847.72,1926.58 2848.02,1926.22C2852.3,1920.89 2882.55,1883.25 2890.6,1873.22C2891.03,1872.69 2891.16,1871.98 2890.94,1871.33C2890.72,1870.68 2890.18,1870.19 2889.52,1870.03C2857.11,1862.1 2824.67,1854.4 2792.19,1847.22C2762.15,1840.58 2732.07,1834.37 2701.94,1828.83ZM2698.37,1825.45C2698.71,1825.5 2699.06,1825.37 2699.29,1825.1C2701.5,1822.47 2713.24,1808.53 2718.03,1802.85C2718.31,1802.51 2718.34,1802.03 2718.11,1801.67C2717.87,1801.3 2717.43,1801.12 2717.01,1801.23C2705.28,1804.32 2663.37,1815.38 2653.91,1817.87C2653.72,1817.92 2653.6,1818.09 2653.61,1818.28C2653.62,1818.47 2653.76,1818.63 2653.95,1818.65C2660.54,1819.6 2667.12,1820.58 2673.71,1821.6C2681.33,1822.78 2695.4,1824.98 2698.37,1825.45ZM2432.61,1899.29L2436.79,1898.54C2436.79,1898.54 2503.08,1913.06 2514.49,1915.56C2515.59,1915.8 2516.72,1915.88 2517.84,1915.8C2531.99,1914.77 2630.18,1907.62 2640.13,1906.9C2640.66,1906.86 2641.14,1906.62 2641.49,1906.23C2646.28,1900.81 2681.5,1860.86 2690.32,1848.63C2693.9,1843.66 2696.73,1832.53 2697.54,1829.1C2697.6,1828.83 2697.55,1828.55 2697.4,1828.33C2697.25,1828.1 2697.02,1827.94 2696.75,1827.89C2689.12,1826.51 2680.94,1825.06 2673.36,1823.77C2665.17,1822.39 2657.01,1820.45 2648.82,1819.17L2649.45,1818.01C2649.45,1818.01 2706.87,1802.75 2720.3,1799.17C2720.71,1799.06 2721.15,1799.23 2721.39,1799.58C2721.62,1799.93 2721.61,1800.4 2721.36,1800.74C2717.15,1806.34 2706.51,1820.53 2703.23,1824.92C2703.02,1825.2 2702.97,1825.57 2703.1,1825.89C2703.23,1826.21 2703.52,1826.45 2703.86,1826.5C2733.5,1831.55 2763.45,1837.27 2793.01,1843.36C2839.57,1852.96 2884.02,1864.18 2930.7,1874.12C2933.1,1874.63 2935.03,1876.35 2934.25,1879.29C2933.88,1880.67 2898.52,1926.77 2898.52,1926.77C2894.58,1932.34 2890.11,1937.11 2885.02,1940.93C2879.81,1944.85 2873.94,1947.77 2867.32,1949.54L2867.23,1949.56C2867.23,1949.56 2720.14,1972.12 2692.43,1976.38C2689.5,1976.83 2686.5,1976.53 2683.71,1975.52C2662.71,1967.92 2569.63,1934.39 2536.58,1924.91C2514.84,1918.67 2470.69,1908.78 2470.58,1908.79C2470.58,1908.79 2386.61,1917.02 2369.61,1917.63C2368.79,1917.66 2368.63,1916.83 2369.16,1916.34C2370.43,1915.17 2386.5,1902.47 2386.5,1902.47C2386.51,1902.47 2386.88,1903.44 2386.88,1903.44C2386.88,1903.44 2375.3,1912.87 2371.77,1915.74C2371.63,1915.85 2371.59,1916.04 2371.65,1916.2C2371.72,1916.36 2371.88,1916.47 2372.06,1916.45C2383.57,1915.44 2467.67,1908.04 2467.67,1908.04C2456.42,1905.81 2432.61,1899.29 2432.61,1899.29Z" style="fill:rgb(35,45,59);"/>
        </g>
        <g id="Front">
            <path id="Line" d="M4138.54,2031.56C4133.94,2049.07 4123.93,2060.21 4109.97,2066.67C4106.02,2068.51 4101.32,2067.56 4098.4,2064.32C4089.17,2054.21 4076.41,2040.3 4062.81,2026.8C4053.2,2017.26 4043.17,2007.92 4033.69,2000.23C4019.74,1988.91 4004.12,1977.13 3987.7,1965.95C3971.83,1955.16 3955.21,1944.92 3938.6,1936.18C3915.96,1924.27 3887.32,1910.53 3857.06,1897.18C3829.38,1884.97 3800.34,1873.09 3773.31,1863.24C3726.35,1846.13 3660.21,1822.97 3594.82,1802.15C3552.44,1788.66 3510.38,1776.15 3474.06,1766.91C3442.74,1758.95 3407.55,1752 3372.62,1745.93C3314.31,1735.81 3256.73,1728.13 3219.17,1722.28C3201.69,1719.55 3184.14,1717.15 3166.56,1715.18C3148.96,1713.22 3131.32,1711.68 3113.66,1710.7C3099.51,1709.9 3084.65,1709.65 3069.8,1709.64C3047.04,1709.63 3024.28,1710.18 3004.05,1710.23C2988.91,1710.26 2973.77,1710.32 2958.63,1710.45C2943.49,1710.58 2928.35,1710.79 2913.21,1711.11C2896.98,1711.45 2878.29,1711.98 2859.83,1712.56C2840.84,1713.16 2822.08,1713.82 2806.46,1714.41C2796.79,1714.78 2785.93,1715.26 2775.21,1715.77C2757.05,1716.62 2739.27,1717.55 2728.36,1718.12C2739.27,1717.6 2757.05,1716.74 2775.22,1715.96C2785.94,1715.5 2796.8,1715.06 2806.47,1714.73C2822.09,1714.2 2840.85,1713.62 2859.84,1713.1C2878.31,1712.59 2896.99,1712.15 2913.23,1711.87C2928.36,1711.61 2943.5,1711.47 2958.64,1711.4C2973.78,1711.33 2988.92,1711.33 3004.05,1711.36C3024.27,1711.4 3047.03,1710.94 3069.8,1711.05C3084.62,1711.12 3099.44,1711.43 3113.57,1712.28C3131.2,1713.34 3148.8,1714.94 3166.35,1716.98C3183.91,1719.01 3201.41,1721.48 3218.85,1724.28C3256.37,1730.29 3313.91,1738.19 3372.16,1748.56C3406.99,1754.75 3442.07,1761.83 3473.29,1769.91C3509.51,1779.28 3551.46,1791.94 3593.72,1805.59C3658.96,1826.65 3724.95,1850.07 3771.8,1867.35C3798.7,1877.28 3827.59,1889.24 3855.13,1901.53C3885.22,1914.95 3913.7,1928.76 3936.2,1940.71C3952.61,1949.43 3969.02,1959.63 3984.67,1970.38C4000.92,1981.54 4016.36,1993.28 4030.16,2004.57C4033.75,2007.5 4062.48,2037.78 4080.63,2057.04C4082.77,2059.31 4086.71,2063.59 4090.02,2067.19C4091.21,2068.48 4091.64,2070.3 4091.14,2071.99C4090.65,2073.67 4089.3,2074.97 4087.6,2075.42C4081.93,2076.91 4075.01,2078.72 4073.09,2079.19C3994,2098.51 3915.57,2088.25 3837.5,2061.37L3837.49,2061.36C3837.17,2061.15 3741.62,2024.83 3741.62,2024.83C3661.22,1994.39 3564.88,1958.13 3478.32,1926.43C3408.54,1900.87 3345.13,1878.27 3301.55,1864.04C3270.05,1853.75 3237.85,1845.68 3205.31,1839.05C3172.85,1832.44 3140.07,1827.27 3107.32,1822.78C3065.82,1817.09 3005.07,1810.79 2945.61,1805.4C2881.44,1799.57 2818.78,1794.79 2783.49,1792.95C2772.98,1792.4 2749.02,1792.53 2749.02,1792.53C2749.02,1792.53 2772.97,1793.03 2783.45,1793.67C2818.72,1795.81 2881.31,1801.12 2945.41,1807.49C3004.77,1813.38 3065.42,1820.19 3106.83,1826.23C3139.45,1830.98 3172.11,1836.42 3204.43,1843.28C3236.73,1850.15 3268.69,1858.44 3299.93,1868.94C3343.34,1883.52 3406.49,1906.64 3475.97,1932.76C3562.23,1965.19 3658.23,2002.25 3738.35,2033.37L3821.29,2065.65C3821.29,2065.65 3818.78,2071.28 3795.3,2118.02C3793.64,2121.32 3794.93,2124.74 3798.34,2127.09C3817.42,2140.25 3858.63,2161.77 3929.34,2182.47C3939.31,2185.38 3949.07,2187.97 3958.61,2190.27C3954.77,2189.93 3950.98,2189.58 3947.24,2189.23C3917.79,2186.48 3891.68,2183.54 3875.77,2180.85C3859.75,2178.14 3844.41,2175.75 3829.29,2172.74C3819.08,2170.72 3808.98,2168.41 3798.85,2165.55C3783.34,2161.17 3761.68,2154.35 3738.96,2146.94C3706.4,2136.33 3671.65,2124.52 3649.68,2116.93C3640.34,2113.7 3629.93,2109.84 3619.69,2105.92C3602.32,2099.27 3575.11,2087.4 3564.75,2083.21C3564.12,2082.95 3563.41,2083.25 3563.15,2083.87C3562.9,2084.5 3563.19,2085.21 3563.82,2085.47C3574.14,2089.8 3601.26,2101.9 3618.56,2108.79C3628.79,2112.87 3639.18,2116.88 3648.51,2120.24C3670.4,2128.13 3705.01,2140.42 3737.45,2151.47C3760.15,2159.21 3781.79,2166.34 3797.28,2170.95C3807.53,2173.99 3817.74,2176.47 3828.07,2178.66C3843.21,2181.88 3858.57,2184.49 3874.62,2187.43C3890.6,2190.35 3916.86,2193.67 3946.48,2196.84C3981.62,2200.59 4021.51,2204.12 4054.52,2206.52C4066.07,2207.36 4078.06,2207.44 4088.72,2207.2C4107.95,2206.76 4122.81,2205.26 4122.81,2205.26C4123.24,2205.22 4123.65,2205.12 4124.04,2204.97C4152.33,2202.93 4171.66,2198.89 4179.91,2197.12L4179.95,2197.11C4197.88,2192.95 4215.76,2182.64 4223.77,2165.93C4229.18,2154.65 4227.04,2132.22 4221.19,2120.6C4211.83,2102.02 4152.97,2034.75 4145.64,2026.06C4141.45,2021.1 4137.13,2016.22 4132.64,2011.52C4128.12,2006.78 4123.44,2002.21 4118.53,1997.89C4109.93,1990.31 4098.02,1979.78 4085.42,1969.69C4077.65,1963.47 4069.62,1957.41 4061.93,1952.29C4050.11,1944.43 4036.39,1935.9 4022,1927.68C4008.38,1919.89 3994.16,1912.38 3980.38,1905.95C3965.97,1899.23 3947.58,1891.49 3928.39,1883.76C3900.5,1872.52 3870.94,1861.28 3849.55,1853.15C3838.23,1848.84 3826.8,1844.81 3815.34,1840.9C3798.2,1835.05 3780.97,1829.47 3763.83,1823.63C3744.59,1817.07 3723.2,1809.33 3701.48,1801.91C3687.45,1797.12 3673.29,1792.46 3659.48,1788.34C3627.39,1778.76 3577.11,1763.83 3529.12,1750.4C3496.79,1741.36 3465.49,1733 3441.5,1727.42C3423.49,1723.23 3404.65,1719.7 3385.84,1716.65C3356.68,1711.91 3327.6,1708.32 3301.75,1705.14C3282.63,1702.79 3263.45,1700.74 3244.23,1699.16C3224.99,1697.59 3205.72,1696.5 3186.44,1696.08C3164.45,1695.61 3137.71,1695.72 3109.27,1696.11C3071.33,1696.64 3030.36,1697.67 2993.62,1698.5C2965.62,1699.12 2931.59,1700.08 2897.12,1701.12C2842.55,1702.77 2786.9,1704.64 2752.4,1705.8C2751.8,1705.82 2751.33,1706.32 2751.35,1706.92C2751.37,1707.52 2751.87,1708 2752.47,1707.98C2786.97,1706.97 2842.63,1705.36 2897.2,1703.96C2931.66,1703.08 2965.69,1702.29 2993.69,1701.79C3030.41,1701.14 3071.38,1700.3 3109.31,1699.94C3137.7,1699.68 3164.39,1699.7 3186.34,1700.27C3205.53,1700.77 3224.71,1701.95 3243.85,1703.61C3263,1705.26 3282.11,1707.4 3301.17,1709.83C3326.93,1713.12 3355.94,1716.84 3385.01,1721.7C3403.69,1724.82 3422.39,1728.41 3440.27,1732.66C3464.17,1738.33 3495.34,1746.82 3527.55,1755.99C3575.43,1769.62 3625.6,1784.78 3657.62,1794.5C3671.33,1798.66 3685.39,1803.36 3699.32,1808.19C3721,1815.71 3742.36,1823.55 3761.57,1830.2C3778.68,1836.12 3795.89,1841.78 3813,1847.71C3824.37,1851.64 3835.69,1855.7 3846.92,1860.03C3868.23,1868.24 3897.69,1879.6 3925.47,1890.94C3944.48,1898.71 3962.71,1906.47 3976.97,1913.21C3990.53,1919.61 4004.51,1927.08 4017.9,1934.82C4032.08,1943.01 4045.59,1951.49 4057.23,1959.32C4064.7,1964.34 4072.5,1970.28 4080.04,1976.38C4092.47,1986.43 4104.22,1996.92 4112.71,2004.47C4117.4,2008.64 4121.88,2013.06 4126.2,2017.63C4130.46,2022.14 4134.56,2026.81 4138.54,2031.56ZM4103.38,2084.45C4102.11,2082.74 4099.89,2082.02 4097.86,2082.66C4048.42,2098.18 3999.23,2102.05 3950.24,2097.21C3948.89,2097.08 3947.55,2097.49 3946.51,2098.37C3945.47,2099.25 3944.84,2100.51 3944.75,2101.86C3943.84,2115.83 3941.35,2154.16 3940.38,2169.07C3940.15,2172.6 3942.44,2175.79 3945.86,2176.71C4050.74,2204.53 4144.69,2192.76 4171.6,2188.36C4173.25,2187.99 4174.59,2186.81 4175.18,2185.23C4175.76,2183.65 4175.51,2181.88 4174.51,2180.53C4159.52,2160.27 4113.8,2098.52 4103.38,2084.45ZM4151.43,2047.03C4150.36,2045.71 4148.69,2045.03 4147,2045.22C4145.31,2045.41 4143.84,2046.45 4143.08,2047.97C4136.99,2060.38 4127.77,2069.1 4116.07,2074.88C4114.74,2075.53 4113.77,2076.74 4113.43,2078.18C4113.08,2079.62 4113.38,2081.13 4114.26,2082.32C4127.97,2100.86 4175.66,2165.26 4186.91,2180.45C4188.34,2182.38 4190.95,2183.02 4193.11,2181.97C4202.34,2177.45 4210.37,2170.76 4214.76,2161.61C4219.17,2152.4 4219.32,2136.43 4214.03,2125.68C4207.52,2112.49 4166.88,2065.15 4151.43,2047.03ZM3834.68,2070.98C3832.31,2070.16 3829.69,2071.23 3828.57,2073.48C3823.96,2082.77 3812.46,2105.95 3807.71,2115.51C3806.53,2117.88 3807.41,2120.76 3809.71,2122.08C3830.19,2133.69 3866.13,2152.76 3924.1,2170.46C3925.56,2170.91 3927.15,2170.67 3928.41,2169.8C3929.66,2168.93 3930.45,2167.53 3930.55,2166.01C3931.53,2151 3933.99,2113.26 3934.84,2100.08C3935.01,2097.47 3933.15,2095.18 3930.56,2094.81C3898.52,2090.15 3866.57,2081.93 3834.68,2070.98Z" style="fill:rgb(35,45,59);"/>
        </g>
    </g>
</svg>
