<svg width="393" height="852" viewBox="0 0 393 852" fill="none" xmlns="http://www.w3.org/2000/svg">
<rect width="393" height="852" fill="url(#paint0_linear_765_46)"/>
<path d="M30 30H363V822H30V30Z" fill="url(#paint1_linear_765_46)"/>
<path d="M60 60H333V792H60V60Z" fill="url(#paint2_linear_765_46)"/>
<path d="M90 90H303V762H90V90Z" fill="url(#paint3_linear_765_46)"/>
<path d="M120 120H273V732H120V120Z" fill="url(#paint4_linear_765_46)"/>
<path d="M150 150H243V702H150V150Z" fill="url(#paint5_linear_765_46)"/>
<path d="M180 180H213V672H180V180Z" fill="url(#paint6_linear_765_46)"/>
<defs>
<linearGradient id="paint0_linear_765_46" x1="196.5" y1="0" x2="196.5" y2="852" gradientUnits="userSpaceOnUse">
<stop stop-color="white"/>
<stop offset="0.5" stop-color="#FF0099"/>
<stop offset="0.75" stop-color="#FF0004"/>
<stop offset="1" stop-color="#171717"/>
</linearGradient>
<linearGradient id="paint1_linear_765_46" x1="196.5" y1="30" x2="196.5" y2="822" gradientUnits="userSpaceOnUse">
<stop stop-color="white"/>
<stop offset="0.5" stop-color="#FF0099"/>
<stop offset="0.75" stop-color="#FF0004"/>
<stop offset="1" stop-color="#171717"/>
</linearGradient>
<linearGradient id="paint2_linear_765_46" x1="196.5" y1="60" x2="196.5" y2="792" gradientUnits="userSpaceOnUse">
<stop stop-color="white"/>
<stop offset="0.5" stop-color="#FF0099"/>
<stop offset="0.75" stop-color="#FF0004"/>
<stop offset="1" stop-color="#171717"/>
</linearGradient>
<linearGradient id="paint3_linear_765_46" x1="196.5" y1="90" x2="196.5" y2="762" gradientUnits="userSpaceOnUse">
<stop stop-color="white"/>
<stop offset="0.5" stop-color="#FF0099"/>
<stop offset="0.75" stop-color="#FF0004"/>
<stop offset="1" stop-color="#171717"/>
</linearGradient>
<linearGradient id="paint4_linear_765_46" x1="196.5" y1="120" x2="196.5" y2="732" gradientUnits="userSpaceOnUse">
<stop stop-color="white"/>
<stop offset="0.5" stop-color="#FF0099"/>
<stop offset="0.75" stop-color="#FF0004"/>
<stop offset="1" stop-color="#171717"/>
</linearGradient>
<linearGradient id="paint5_linear_765_46" x1="196.5" y1="150" x2="196.5" y2="702" gradientUnits="userSpaceOnUse">
<stop stop-color="white"/>
<stop offset="0.5" stop-color="#FF0099"/>
<stop offset="0.75" stop-color="#FF0004"/>
<stop offset="1" stop-color="#171717"/>
</linearGradient>
<linearGradient id="paint6_linear_765_46" x1="196.5" y1="180" x2="196.5" y2="672" gradientUnits="userSpaceOnUse">
<stop stop-color="white"/>
<stop offset="0.5" stop-color="#FF0099"/>
<stop offset="0.75" stop-color="#FF0004"/>
<stop offset="1" stop-color="#171717"/>
</linearGradient>
</defs>
</svg>
