<?xml version="1.0" encoding="UTF-8"?>
<svg id="Layer_8" data-name="Layer 8" xmlns="http://www.w3.org/2000/svg" xmlns:xlink="http://www.w3.org/1999/xlink" viewBox="0 0 3000 3000">
  <defs>
    <style>
      .cls-1 {
        fill: none;
      }

      .cls-2 {
        fill: #777cbb;
      }

      .cls-3 {
        fill: #767f99;
      }

      .cls-4 {
        fill: #2d3080;
      }

      .cls-5 {
        fill: #535872;
      }

      .cls-6 {
        fill: #565e92;
      }

      .cls-7 {
        fill: #8088a0;
      }

      .cls-8 {
        fill: #939ec4;
      }

      .cls-9 {
        clip-path: url(#clippath);
      }
    </style>
    <clipPath id="clippath">
      <rect class="cls-1" x="0" width="3000" height="3000"/>
    </clipPath>
  </defs>
  <g class="cls-9">
    <rect class="cls-8" x="-114.07" y="-108.59" width="3292.7" height="2964.28"/>
    <path class="cls-7" d="M3694.23,1626.7c-34.18-467.48-424.27-836.14-900.47-836.14-381.71,0-708.1,236.87-840.21,571.63-433.35,66.27-765.3,440.62-765.3,892.5,0,498.67,404.25,902.92,902.92,902.92,175.18,0,338.72-49.89,477.16-136.24,138.45,86.35,301.98,136.24,477.16,136.24,498.67,0,902.92-404.25,902.92-902.92,0-244.06-96.84-465.49-254.18-627.99Z"/>
    <path class="cls-3" d="M4367.14,2000.55c-34.18-467.48-424.27-836.14-900.47-836.14-381.71,0-708.1,236.87-840.21,571.63-433.35,66.27-765.3,440.62-765.3,892.5,0,498.67,404.25,902.92,902.92,902.92,175.18,0,338.72-49.89,477.16-136.24,138.45,86.35,301.98,136.24,477.16,136.24,498.67,0,902.92-404.25,902.92-902.92,0-244.06-96.84-465.49-254.18-627.99Z"/>
    <rect class="cls-5" x="-245.25" y="2701.4" width="3456.52" height="550.94"/>
    <rect class="cls-5" x="2113.44" y="2238.04" width="58.25" height="472.26"/>
    <path class="cls-5" d="M1568.37,2277.57h1044.37s27.05-257.97-172.68-289.18c0,0,2.08-309.98-297.5-334.95,0,0-226.77-22.88-328.71,208.04,0,0-247.57,31.21-245.49,416.09Z"/>
    <path class="cls-5" d="M2130.09,2439.84s-226.77,29.13-239.25-185.16h53.42s-1.01,155.8,185.82,137.31v47.85Z"/>
    <rect class="cls-2" x="-336.41" y="1603.62" width="1080.5" height="406.65"/>
    <rect class="cls-6" x="-972.24" y="1603.62" width="1080.5" height="406.65"/>
    <polygon class="cls-4" points="744.1 1603.62 -336.41 1603.62 -336.41 1295.36 505.66 1295.36 744.1 1603.62"/>
    <rect class="cls-2" x="-114.07" y="2294.75" width="1495.42" height="406.65"/>
    <rect class="cls-6" x="-994.07" y="2294.75" width="1495.42" height="406.65"/>
    <polygon class="cls-4" points="1381.35 2294.75 -114.07 2294.75 -114.07 1986.49 1051.35 1986.49 1381.35 2294.75"/>
    <rect class="cls-4" x="815.4" y="1721.83" width="106.1" height="386.27"/>
    <rect class="cls-4" x="108.26" y="987.28" width="106.1" height="386.27"/>
    <rect class="cls-6" x="695.94" y="2356.38" width="56.34" height="170.45"/>
    <rect class="cls-6" x="501.35" y="1692.17" width="56.34" height="170.45"/>
    <rect class="cls-6" x="808.72" y="2355.95" width="56.34" height="170.45"/>
  </g>
</svg>