<?xml version="1.0" encoding="UTF-8"?>
<svg id="Layer_1" xmlns="http://www.w3.org/2000/svg" version="1.1" viewBox="0 0 600 400">
  <!-- Generator: Adobe Illustrator 29.5.1, SVG Export Plug-In . SVG Version: 2.1.0 Build 141)  -->
  <defs>
    <style>
      .st0 {
        fill: none;
      }

      .st1 {
        fill: #825c3d;
      }

      .st2 {
        fill: #fbb040;
      }

      .st3 {
        fill: #3c2415;
      }
    </style>
  </defs>
  <rect class="st2" width="600" height="400"/>
  <g>
    <path class="st0" d="M43.746,0c6.284,6.587,11.169,14.33,17.872,20.341,7.172,6.108,9.073,11.084,5.196,19.974-3.674,11.812-8.268,22.907-22.071,25.615-13.301,2.268-24.939-4.24-35.937-10.543-3.052-1.791-5.979-3.502-8.805-5.312v304.48c3.312-2.219,6.816-4.24,10.584-6.001,31.25-14.728,56.02,17.255,61.793,44.681.493,2.237.86,4.496,1.131,6.766h154.057c-.24-7.391,1.277-14.815,4.649-21.184,4.737-8.932,14.24-14.788,23.217-18.23,8.995-3.293,18.861-5.666,28.48-3.673,13.676,3.079,21.413,14.12,24.18,26.871,1.273,5.309,1.848,10.759,1.596,16.216h290.314V0H43.746ZM493.585,57.751c3.349-9.2,11.072-18.966,21.747-19.32,3.446-.115,6.987.941,9.26,3.176.266.249.377.563.39.879l18.762-6.565c-.139-.568.043-1.22.62-1.513,13.017-6.916,29.994,1.104,37.761,12.987,6.535,9.642,8.593,22.287,6.88,33.496-1.616,11.906-8.076,23.12-15.233,32.272-4.119,5.428-8.487,10.39-13.48,14.973-4.258,3.814-8.355,7.713-13.787,10.081-3.436,1.498-8.175.639-10.927-1.662-2.253-1.752-4.339-3.875-6.358-5.681-3.478-3.145-8.256-7.936-11.697-11.211-5.872-5.701-12.542-11.497-17.672-18.227-9.61-12.036-11.681-29.288-6.267-43.686ZM288.182,6.014c2.276.025,4.418.426,6.402.983,3.982,1.201,7.343,3.057,10.505,5.782.37.308.537.755.528,1.2l29.398-2.206c.139-.601.641-1.118,1.305-1.167,6.187-.599,12.664,1.037,17.875,4.816,15.09,11.182,13.075,33.061-2.624,42.644-9.187,5.675-21.138,6.692-31.531,4.803-7.594-1.598-14.461-5.981-21.181-9.272-4.071-2.007-8.109-3.858-12.419-5.27-2.846-.978-5.535-1.667-8.473-2.903-23.478-9.787-12.661-39.598,10.215-39.409ZM78.973,199.664c-2.726,4.577-5.748,8.98-8.996,13.134-10.657,13.659-27.513,25.86-45.727,18.255-11.571-4.756-19.248-15.827-20.296-27.921-.941-11.157,1.982-21.421,5.89-31.457,2.06-4.59,4.407-8.915,6.746-13.563,5.403-11.132,13.005-24.303,26.76-26.233,21.551-3.137,44.473,23.22,43.83,43.736-.107,8.944-3.78,16.693-8.207,24.05ZM187.317,291.922c-4.674,15.271-20.204,25.222-35.638,25.881-13.266.676-25.14-7.785-34.424-15.977-3.931-3.395-7.59-6.747-11.415-10.299-4.078-3.855-8.105-7.845-10.943-13.047-9.744-17.66-.969-37.035,14.349-47.873,4.674-3.285,9.843-5.758,15.265-7.07,5.396-1.325,11.015-1.636,16.384-.327.786.172,1.168.986,1.011,1.689l7.639,4.864c.357-.452.969-.708,1.551-.461,5.011,1.899,9.558,4.731,13.729,8.072,14.491,11.771,28.557,34.971,22.493,54.551ZM179.101,123.061c-5.625.618-11.326-.22-16.68-1.658-8.314-2.282-15.79-5.161-23.775-8.048-8.138-3.043-17.794-6.23-23.68-13.345-8.248-9.557-8.447-24.918-1.995-35.444,2.558-4.118,6.065-7.68,10.422-9.814,2.103-1.057,4.389-1.732,6.738-1.883.723-.077,1.315.423,1.503,1.052l40.709,1.826c-.071-.374-.005-.773.252-1.092,1.626-2.096,4.523-3.126,7.182-3.197,8.142-.365,14.427,6.894,18.515,12.786,5.327,7.499,9.169,16.364,9.141,26.274.112,15.91-12.176,30.966-28.334,32.542ZM237.373,219.152c-8.431-9.679-16.132-28.232-15.656-41.24.775-15.794,13.228-30.876,28.668-34.471,5.098-1.176,10.501-1.126,15.239.824.695.268.978,1.022.821,1.675l27,17.113c.024-.073.05-.145.087-.215.137-.258.344-.454.586-.579,2.349-1.21,5.406-1.45,8.278-.733,7.505,1.891,13.188,8.64,15.059,16.073,1.172,4.589.935,9.664-.087,14.179-5.402,22.299-30.682,43.495-54.314,41.998-10.273-.841-19.372-7.18-25.681-14.625ZM395.035,317.532c-12.582,16.976-34.399,13.915-52.595,11.453-12.485-1.661-24.6-5.612-35.743-11.399-11.15-5.653-22.268-11.274-32.582-18.344-17.929-12.394-11.344-28.891,4.875-39.061,6.175-3.786,12.965-5.685,19.422-6.533,18.781-2.351,38.634.092,54.984,10.121.356.215.54.56.589.924l25.184-9.532c-.042-.432.101-.875.466-1.165.309-.246.699-.331,1.06-.267,6.748,1.211,12.773,5.662,16.901,11.222,11.388,15.391,8.439,37.754-2.561,52.58ZM420.745,142.758c4.984-4.556,10.264-7.234,16.739-9.049,1.608-.607,13.468-2.745,11.904,1.631-.016.039-.03.076-.045.115l10.923,27.133c.025-.034.044-.07.073-.102,1.433-1.701,4.047-2.433,6.271-2.237,5.199.496,9.363,3.974,11.448,8.907,2.923,7.344-.113,16.171-4.996,21.795-7.408,9.007-18.857,12.923-30.2,12.595-8.022.325-17.334-2.559-22.188-9.783-4.452-6.633-5.484-13.147-6.559-20.523-1.562-10.713-2.485-22.679,6.63-30.483ZM528.991,353.952c-3.233,16.37-19.246,27.465-34.706,30.286-16.479,2.527-32.251-4.451-46.006-12.483-12.048-6.966-25.17-16.247-27.288-31.194-2.525-16.302,9.692-31.699,25.094-35.675,5.293-1.446,10.5-1.859,15.826-1.213.623.059,1.05.538,1.182,1.087l17.248-1.947c.122-.68.736-1.276,1.488-1.171,5.197.53,10.117,1.669,15.038,3.348,7.509,2.559,15.132,6.981,20.898,12.96,8.997,9.367,13.976,22.963,11.225,36.003ZM595.455,275.919c-2.926,9.134-10.422,18.193-20.291,21.652-13.534,5.055-27.797.423-39.078-6.851-4.02-2.495-7.947-5.219-11.309-8.582-5.13-5.004-8.949-11.26-12.281-17.514-3.12-5.836-6.125-12.335-8.841-18.371-3.936-8.899-8.957-19.193-6.495-29.544,2.392-11.66,14.641-19.484,25.401-21.052,5.047-.83,9.669-.626,14.081,0,4.428.669,8.555,1.665,13.107,3.126.874.242,1.24,1.257.882,2.013l36.576,49.662c.32-.305.771-.473,1.233-.346,2.727.571,5.204,2.731,6.57,5.196,3.477,6.419,2.807,14.013.444,20.608Z"/>
    <path class="st1" d="M131.584,54.904c-2.487,7.208-3.077,12.597-2.406,19.543.446,5.462,2.464,9.723,3.692,14.835,1.761,8.195,5.209,16.5,14.016,19.075,8.422,2.944,17.43-.988,24.779-4.818,2.941-1.467,5.139-2.725,6.042-3.917,1.934-2.728,2.497-6.636,3.031-10.183,1.026-8.108-.856-18.187-1.74-26.577-.488-2.896-2.282-5.394-5.563-5.998-.591-.095-.988-.578-1.091-1.117l-40.709-1.826c.094.314.096.658-.051.983Z"/>
    <path class="st3" d="M179.778,51.459c-2.659.071-5.556,1.101-7.182,3.197-.258.319-.324.718-.252,1.092.103.538.499,1.021,1.091,1.117,3.281.604,5.075,3.103,5.563,5.998.884,8.389,2.766,18.468,1.74,26.577-.534,3.547-1.097,7.455-3.031,10.183-.903,1.193-3.101,2.451-6.042,3.917-7.349,3.829-16.356,7.762-24.779,4.818-8.808-2.575-12.255-10.88-14.016-19.075-1.228-5.112-3.246-9.373-3.692-14.835-.671-6.945-.082-12.334,2.406-19.543.147-.325.145-.669.051-.983-.189-.63-.78-1.129-1.503-1.052-2.35.15-4.635.826-6.738,1.883-4.357,2.134-7.864,5.696-10.422,9.814-6.452,10.526-6.254,25.887,1.995,35.444,5.886,7.114,15.542,10.302,23.68,13.345,7.985,2.887,15.462,5.767,23.775,8.048,5.353,1.438,11.055,2.277,16.68,1.658,16.158-1.576,28.446-16.631,28.334-32.542.028-9.91-3.814-18.775-9.141-26.274-4.088-5.893-10.373-13.151-18.515-12.786Z"/>
    <path class="st1" d="M436.938,158.072c-3.773,6.17-13.172,7.575-14.779,15.177-1.01,4.463,2.636,9.702,7.126,9.876,2.01.141,3.52-.678,5.132-1.218,1.607-.666,3.386-1.042,5.453-1.799,5.029-1.829,9.497-4.517,14.452-6.275,1.082-.398,3.192-1.186,4.214-1.445.827-.192,1.551-.248,2.348-.382.243.177.532.234.803.145,1.642-.733,1.876-3.482,1.309-5.153-.37-1.138-1.35-1.805-2.368-2.409-.682-.43-.833-1.368-.361-2.001l-10.923-27.133c-1.322,3.37-2.288,6.024-3.49,8.719-2.247,5.02-5.725,9.791-8.916,13.898Z"/>
    <path class="st3" d="M442.862,203.547c11.343.327,22.791-3.589,30.2-12.595,4.883-5.624,7.919-14.451,4.996-21.795-2.084-4.932-6.248-8.411-11.448-8.907-2.224-.196-4.837.536-6.271,2.237-.029.032-.048.068-.073.102-.472.632-.321,1.571.361,2.001,1.018.604,1.998,1.272,2.368,2.409.567,1.671.333,4.42-1.309,5.153-.271.088-.559.032-.803-.145-.796.134-1.521.19-2.348.382-1.023.259-3.133,1.047-4.214,1.445-4.955,1.757-9.423,4.445-14.452,6.275-2.067.757-3.846,1.133-5.453,1.799-1.612.54-3.122,1.359-5.132,1.218-4.49-.174-8.136-5.413-7.126-9.876,1.606-7.602,11.005-9.007,14.779-15.177,3.191-4.107,6.669-8.878,8.916-13.898,1.202-2.695,2.168-5.349,3.49-8.719.015-.039.03-.076.045-.115,1.564-4.376-10.296-2.238-11.904-1.631-6.475,1.815-11.755,4.493-16.739,9.049-9.115,7.804-8.192,19.77-6.63,30.483,1.075,7.376,2.108,13.89,6.559,20.523,4.854,7.224,14.165,10.108,22.188,9.783Z"/>
    <path class="st1" d="M352.955,266.231c-16.85,3.587-34.007,5.746-50.718,9.375-5.16,1.158-9.877,2.32-14.427,3.494-3.421.93-8.465,2.465-11.1,4.232-1.23.809-1.553,2.158-1.18,3.774,1.117,4.636,6.2,8.423,10.358,10.76,7.465,4.261,15.928,5.941,24.531,6.552,11.372.648,22.594.847,33.854,1.011,5.533-.054,11.035-.358,16.491-.828,3.336-.265,8.889-.646,11.582-1.767,2.875-1.169,4.996-4.079,6.869-6.626,5.199-7.564,8.298-16.238,6.783-25.713-.873-5.278-3.016-10.191-6.536-14.589-.189-.216-.269-.478-.294-.743l-25.184,9.532c.09.666-.291,1.398-1.029,1.537Z"/>
    <path class="st3" d="M380.694,253.73c-.361-.063-.751.021-1.06.267-.365.29-.508.733-.466,1.165.026.265.106.528.294.743,3.52,4.397,5.664,9.311,6.536,14.589,1.515,9.474-1.584,18.149-6.783,25.713-1.873,2.548-3.994,5.457-6.869,6.626-2.693,1.121-8.246,1.502-11.582,1.767-5.456.47-10.958.774-16.491.828-11.26-.165-22.482-.364-33.854-1.011-8.602-.611-17.065-2.291-24.531-6.552-4.159-2.336-9.241-6.124-10.358-10.76-.374-1.616-.051-2.965,1.18-3.774,2.635-1.767,7.679-3.302,11.1-4.232,4.55-1.173,9.267-2.336,14.427-3.494,16.711-3.628,33.868-5.787,50.718-9.375.739-.139,1.119-.871,1.029-1.537-.049-.364-.233-.709-.589-.924-16.349-10.029-36.203-12.472-54.984-10.121-6.456.848-13.247,2.747-19.422,6.533-16.219,10.171-22.805,26.667-4.875,39.061,10.313,7.07,21.432,12.692,32.582,18.344,11.143,5.787,23.257,9.737,35.743,11.399,18.196,2.461,40.013,5.522,52.595-11.453,11-14.826,13.949-37.189,2.561-52.58-4.128-5.56-10.154-10.012-16.901-11.222Z"/>
    <path class="st1" d="M265.902,146.751c-9.424,7.185-15.579,15.429-19.843,25.919-2.423,6.894-5.865,12.834-8.339,19.968-2.714,7.471-1.266,15.732,5.418,20.409,5.571,4.04,12.585,3.801,18.562,1.326,3.201-1.346,6.342-2.891,9.218-4.863,4.784-3.253,11.129-10.313,15.386-14.5,4.647-4.764,9.348-8.905,12.207-14.266,2.982-5.129,1.309-13.003-4.302-15.986-.664-.291-.986-1.038-.764-1.704l-27-17.113c-.076.316-.248.611-.543.81Z"/>
    <path class="st3" d="M317.368,191.779c1.022-4.515,1.259-9.589.087-14.179-1.871-7.434-7.554-14.182-15.059-16.073-2.872-.716-5.929-.477-8.278.733-.242.124-.449.32-.586.579-.038.07-.063.143-.087.215-.222.666.1,1.413.764,1.704,5.611,2.984,7.284,10.857,4.302,15.986-2.859,5.361-7.561,9.502-12.207,14.266-4.258,4.187-10.602,11.247-15.386,14.5-2.876,1.972-6.017,3.516-9.218,4.863-5.977,2.475-12.991,2.714-18.562-1.326-6.683-4.677-8.132-12.939-5.418-20.409,2.474-7.134,5.916-13.074,8.339-19.968,4.264-10.49,10.418-18.735,19.843-25.919.295-.199.467-.494.543-.81.158-.652-.126-1.407-.821-1.675-4.739-1.95-10.142-2-15.239-.824-15.44,3.595-27.893,18.676-28.668,34.471-.477,13.008,7.225,31.561,15.656,41.24,6.309,7.445,15.408,13.784,25.681,14.625,23.632,1.497,48.912-19.699,54.314-41.998Z"/>
    <path class="st1" d="M119.027,249.826c-3.064,4.61-5.325,9.732-7.688,14.53-3.741,7.266-5.012,14.461.488,21.798,6.547,8.893,18.258,13.823,29.072,12.401,7.631-.922,16.04-4.105,19.598-11.262,2.455-5.666,1.738-9.803.675-16.715-1.498-8.664-3.803-17.096-6.73-25.632-1.499-4.476-3.308-8.964-5.115-13.897-.19-.463-.062-.935.218-1.289l-7.639-4.864c-.064.285-.207.554-.463.75-8.934,7.529-16.292,14.792-22.416,24.179Z"/>
    <path class="st3" d="M164.825,237.371c-4.172-3.341-8.718-6.172-13.729-8.072-.582-.247-1.193.009-1.551.461-.28.354-.408.826-.218,1.289,1.808,4.933,3.616,9.421,5.115,13.897,2.927,8.535,5.232,16.968,6.73,25.632,1.063,6.912,1.78,11.049-.675,16.715-3.558,7.157-11.967,10.34-19.598,11.262-10.814,1.422-22.524-3.509-29.072-12.401-5.5-7.336-4.228-14.532-.488-21.798,2.362-4.798,4.623-9.92,7.688-14.53,6.124-9.387,13.481-16.65,22.416-24.179.256-.197.399-.465.463-.75.157-.702-.225-1.517-1.011-1.689-5.369-1.308-10.988-.998-16.384.327-5.422,1.312-10.59,3.785-15.265,7.07-15.318,10.839-24.093,30.214-14.349,47.873,2.838,5.202,6.864,9.193,10.943,13.047,3.825,3.552,7.484,6.904,11.415,10.299,9.284,8.192,21.159,16.653,34.424,15.977,15.434-.659,30.964-10.61,35.638-25.881,6.064-19.58-8.001-42.78-22.493-54.551Z"/>
    <path class="st1" d="M63.617,173.402c-4.343-6.249-11.385-12.322-17.676-16.262-.334-.195-.492-.332-.451-.45-.002-.015.082-.085.003-.088-.175-.032-.31-.17-.465-.253,0,0-.18-.011-.18-.011-3.321-.495-6.91.326-10.253,1.058-8.625,1.974-18.5,6.826-22.46,15.276-4.034,8.773.261,18.3,6.665,24.642,5.512,5.595,10.508,10.407,15.746,15.585,2.406,2.242,4.875,4.551,8.29,5.733,8.089,2.85,16.68-2.936,20.078-10.379,1.947-3.924,2.776-8.393,3.07-12.913.303-5.245.29-10.755-.465-15.817-.418-2.16-.758-4.298-1.904-6.12Z"/>
    <path class="st3" d="M43.35,131.877c-13.755,1.93-21.358,15.101-26.76,26.233-2.338,4.648-4.686,8.973-6.746,13.563-3.908,10.036-6.831,20.301-5.89,31.457,1.048,12.095,8.725,23.165,20.296,27.921,18.214,7.605,35.07-4.596,45.727-18.255,3.248-4.154,6.27-8.557,8.996-13.134,4.427-7.357,8.099-15.107,8.207-24.05.644-20.516-22.279-46.873-43.83-43.736ZM65.986,195.339c-.294,4.52-1.123,8.989-3.07,12.913-3.399,7.442-11.99,13.229-20.078,10.379-3.415-1.182-5.884-3.492-8.29-5.733-5.239-5.178-10.234-9.99-15.746-15.585-6.404-6.341-10.699-15.868-6.665-24.642,3.959-8.45,13.835-13.302,22.46-15.276,3.343-.732,6.932-1.553,10.253-1.058,0,0,.18.011.18.011.155.083.29.221.465.253.079.003-.005.073-.003.088-.041.118.117.255.451.45,6.291,3.94,13.333,10.014,17.676,16.262,1.146,1.822,1.486,3.96,1.904,6.12.755,5.062.768,10.572.465,15.817Z"/>
    <path class="st1" d="M462.789,306.014c-7.779,8.708-18.161,16.411-19.516,28.105-.131,7.208.491,14.611,3.195,21.849,2.998,7.685,9.959,13.354,18.057,14.864,8.247,1.71,16.848-1.693,23.624-5.753,5.299-3.289,11.601-7.288,13.75-13.262,5.428-18.998-11.255-33.569-21.346-48.025-.223-.3-.27-.648-.211-.979l-17.248,1.947c.103.431.029.903-.305,1.255Z"/>
    <path class="st3" d="M496.869,304.99c-4.921-1.68-9.841-2.818-15.038-3.348-.752-.105-1.366.491-1.488,1.171-.059.33-.012.679.211.979,10.091,14.456,26.774,29.027,21.346,48.025-2.149,5.974-8.451,9.973-13.75,13.262-6.776,4.061-15.377,7.463-23.624,5.753-8.098-1.51-15.059-7.179-18.057-14.864-2.704-7.238-3.326-14.641-3.195-21.849,1.355-11.693,11.737-19.396,19.516-28.105.334-.352.409-.824.305-1.255-.132-.548-.559-1.027-1.182-1.087-5.326-.646-10.533-.233-15.826,1.213-15.402,3.976-27.62,19.374-25.094,35.675,2.118,14.947,15.24,24.228,27.288,31.194,13.755,8.032,29.527,15.011,46.006,12.483,15.46-2.821,31.473-13.916,34.706-30.286,2.751-13.039-2.228-26.636-11.225-36.003-5.766-5.978-13.389-10.401-20.898-12.96Z"/>
    <path class="st1" d="M523.711,43.947c-6.603,1.128-9.48,6.703-10.485,12.646-1.55,7.97-.792,16.212.687,24.172,1.903,11.395,2.438,23.945,9.645,33.578,4.246,5.749,10.462,10.571,17.129,12.986.517.181,1.398.062.756-.351-.517-.232-.941-.127-.616-.82.914-1.83,1.998-3.791,2.837-5.755,4.661-10.882,11.902-21.37,15.606-32.468,5.068-14.345,8.794-31.45-2.851-43.654-2.897-3.141-6.634-5.74-11.734-7.391-.515-.111-.828-.513-.939-.967l-18.762,6.565c.029.704-.487,1.419-1.271,1.461Z"/>
    <path class="st3" d="M517.524,119.664c3.441,3.275,8.219,8.065,11.697,11.211,2.018,1.806,4.104,3.93,6.358,5.681,2.752,2.301,7.491,3.16,10.927,1.662,5.431-2.368,9.529-6.267,13.787-10.081,4.993-4.582,9.361-9.545,13.48-14.973,7.157-9.153,13.617-20.366,15.233-32.272,1.713-11.209-.345-23.854-6.88-33.496-7.766-11.883-24.744-19.903-37.761-12.987-.577.293-.76.945-.62,1.513.111.454.424.856.939.967,5.1,1.651,8.837,4.25,11.734,7.391,11.646,12.204,7.919,29.31,2.851,43.654-3.703,11.098-10.944,21.586-15.606,32.468-.839,1.964-1.923,3.925-2.837,5.755-.325.693.099.588.616.82.642.412-.239.532-.756.351-6.666-2.415-12.883-7.236-17.129-12.986-7.207-9.633-7.742-22.183-9.645-33.578-1.479-7.959-2.237-16.202-.687-24.172,1.005-5.943,3.882-11.518,10.485-12.646.784-.042,1.3-.757,1.271-1.461-.013-.316-.125-.63-.39-.879-2.273-2.235-5.814-3.291-9.26-3.176-10.674.354-18.398,10.12-21.747,19.32-5.414,14.398-3.343,31.65,6.267,43.686,5.13,6.73,11.8,12.526,17.672,18.227Z"/>
    <path class="st1" d="M304.9,15.272c-6.253,4.169-15.201,5.899-17.669,12.824-.077.341.021.424-.099.359-.101-.084-.403-.024-.693.369-1.41,3.016.731,7.409,2.827,10.011,5.146,6.363,14.055,8.232,21.8,6.402,4.663-1.016,8.691-2.495,13.092-3.713,4.915-1.039,10.733-4.111,14.292-7.115.809-.62,1.215-.615,1.914-1.07.669-.449,1.312-1.96,1.344-3.983-.043-6.206-3.378-10.7-6.532-16.526-.204-.331-.243-.708-.162-1.057l-29.398,2.206c-.01.507-.25,1.01-.717,1.293Z"/>
    <path class="st3" d="M277.967,45.423c2.938,1.236,5.627,1.925,8.473,2.903,4.31,1.412,8.348,3.263,12.419,5.27,6.72,3.292,13.587,7.674,21.181,9.272,10.393,1.889,22.344.872,31.531-4.803,15.699-9.583,17.714-31.462,2.624-42.644-5.211-3.779-11.687-5.415-17.875-4.816-.664.049-1.166.565-1.305,1.167-.081.349-.042.725.162,1.057,3.154,5.826,6.489,10.32,6.532,16.526-.032,2.024-.675,3.535-1.344,3.983-.7.455-1.105.45-1.914,1.07-3.559,3.004-9.377,6.076-14.292,7.115-4.401,1.218-8.43,2.697-13.092,3.713-7.745,1.831-16.654-.039-21.8-6.402-2.096-2.602-4.237-6.995-2.827-10.011.29-.393.592-.453.693-.369.12.065.022-.018.099-.359,2.468-6.925,11.415-8.656,17.669-12.824.467-.283.708-.786.717-1.293.009-.444-.158-.892-.528-1.2-3.162-2.725-6.523-4.58-10.505-5.782-1.984-.557-4.126-.958-6.402-.983-22.876-.189-33.693,29.622-10.215,39.409Z"/>
    <path class="st1" d="M281.61,377.269c-1.121-2.734-1.943-5.637-3.822-7.994-4.234-5.755-13.105-5.299-18.475-1.243-7.018,4.966-8.527,13.992-8.24,21.955-.038,3.501.741,6.834,1.975,10.013h39.721c-2.449-4.592-4.764-9.25-7.15-14.004-1.497-2.929-2.9-5.749-4.008-8.727Z"/>
    <path class="st3" d="M308.09,383.784c-2.766-12.75-10.504-23.792-24.18-26.871-9.618-1.993-19.485.38-28.48,3.673-8.976,3.442-18.48,9.298-23.217,18.23-3.372,6.37-4.889,13.793-4.649,21.184h25.484c-1.234-3.179-2.014-6.512-1.975-10.013-.287-7.963,1.221-16.989,8.24-21.955,5.37-4.057,14.242-4.512,18.475,1.243,1.879,2.357,2.701,5.26,3.822,7.994,1.108,2.978,2.512,5.798,4.008,8.727,2.386,4.754,4.701,9.412,7.15,14.004h16.917c.252-5.457-.323-10.907-1.596-16.216Z"/>
    <path class="st1" d="M46.207,361.512c-5.262-6.546-14.256-9.861-21.817-6.111-7.757,3.968-11.866,11.289-17.161,18.532-2.197,3.177-4.732,6.663-7.228,10.256v15.812h51.502c.018-1.56.049-3.123.106-4.692.354-11.527,2.258-24.346-5.4-33.796Z"/>
    <path class="st3" d="M10.584,348.554c-3.768,1.761-7.272,3.783-10.584,6.001v29.633c2.496-3.593,5.031-7.079,7.228-10.256,5.296-7.243,9.405-14.564,17.161-18.532,7.561-3.75,16.556-.435,21.817,6.111,7.659,9.45,5.754,22.269,5.4,33.796-.056,1.569-.088,3.133-.106,4.692h22.006c-.271-2.27-.639-4.529-1.131-6.766-5.772-27.426-30.543-59.409-61.793-44.681Z"/>
    <path class="st1" d="M30.049,44.897c3.935-.816,8.629-.95,12.596-1.18,4.846.097,11.466-4.567,15.457-8.771,1.609-1.575,2.486-2.687,2.631-3.365.298-2.994-4.613-5.44-6.804-7.027-7.344-4.817-16.221-7.846-24.241-10.794-5.617-2.079-14.056-5.518-19.569-4.387-.616.063-1.15.25-1.723.381-3.465,1.231-5.723,2.431-8.396,5.582v31.719c9.244,5.24,20.406-.164,30.049-2.158Z"/>
    <path class="st3" d="M44.742,65.93c13.803-2.707,18.398-13.802,22.071-25.615,3.876-8.89,1.976-13.867-5.196-19.974-6.703-6.011-11.587-13.754-17.872-20.341H0v15.336c2.673-3.151,4.931-4.351,8.396-5.582.573-.131,1.107-.318,1.723-.381,5.513-1.13,13.952,2.309,19.569,4.387,8.02,2.947,16.897,5.976,24.241,10.794,2.19,1.587,7.102,4.033,6.804,7.027-.145.678-1.021,1.79-2.631,3.365-3.991,4.204-10.611,8.869-15.457,8.771-3.968.23-8.662.364-12.596,1.18-9.643,1.995-20.805,7.398-30.049,2.158v3.02c2.826,1.81,5.754,3.522,8.805,5.312,10.999,6.304,22.636,12.811,35.937,10.543Z"/>
    <path class="st1" d="M518.84,221.756c-12.969,12.732-9.586,31.059,6.765,39.288,5.186,2.638,10.447,4.369,15.708,6.514,7.086,3.171,17.699,5.372,23.285,5.337,2.19.017,3.947,0,6.031-.562,2.547-.615,6.58-3.401,9.178-5.859,2.991-2.48,5.755-5.575,7.172-9.224.523-1.444.715-3.341-.119-5.336-.227-.533-.033-1.092.347-1.455l-36.576-49.662c-.072.151-.162.295-.294.417-9.474,8.874-23.364,11.128-31.497,20.541Z"/>
    <path class="st3" d="M588.441,250.114c-.462-.126-.912.041-1.233.346-.381.362-.575.921-.347,1.455.834,1.995.643,3.893.119,5.336-1.417,3.649-4.181,6.744-7.172,9.224-2.597,2.458-6.631,5.245-9.178,5.859-2.083.561-3.841.579-6.031.562-5.586.034-16.199-2.166-23.285-5.337-5.261-2.145-10.522-3.876-15.708-6.514-16.351-8.229-19.734-26.556-6.765-39.288,8.133-9.413,22.023-11.668,31.497-20.541.132-.122.222-.266.294-.417.358-.756-.008-1.771-.882-2.013-4.552-1.461-8.679-2.457-13.107-3.126-4.412-.626-9.034-.831-14.081,0-10.76,1.568-23.009,9.391-25.401,21.052-2.462,10.351,2.559,20.645,6.495,29.544,2.716,6.036,5.721,12.535,8.841,18.371,3.332,6.254,7.151,12.51,12.281,17.514,3.362,3.363,7.288,6.087,11.309,8.582,11.281,7.274,25.544,11.906,39.078,6.851,9.869-3.46,17.364-12.519,20.291-21.652,2.363-6.595,3.033-14.19-.444-20.608-1.367-2.466-3.843-4.626-6.57-5.196Z"/>
  </g>
</svg>