<?xml version="1.0" encoding="utf-8"?>
<!-- Generator: Adobe Illustrator 26.3.1, SVG Export Plug-In . SVG Version: 6.00 Build 0)  -->
<svg version="1.1" id="Layer_1" xmlns="http://www.w3.org/2000/svg" xmlns:xlink="http://www.w3.org/1999/xlink" x="0px" y="0px"
	 viewBox="0 0 6000 6000" style="enable-background:new 0 0 6000 6000;" xml:space="preserve">
<style type="text/css">
	.st0{fill:#CF003D;}
	.st1{fill:none;stroke:#000000;stroke-width:62;stroke-miterlimit:10;}
	.st2{fill:none;stroke:#FFFFFF;stroke-width:62;stroke-miterlimit:10;}
</style>
<rect x="-34.58" y="-24.16" class="st0" width="6063.16" height="6094.74"/>
<polyline class="st1" points="3158.74,4238.63 3933.69,3776.94 3833.69,1271.55 "/>
<polyline class="st1" points="1984.69,4202.2 2765.1,3781.41 2656.2,1241.7 "/>
<line class="st1" x1="2464.69" y1="3939.22" x2="3671.18" y2="3939.22"/>
<line class="st1" x1="2741.8" y1="3776.94" x2="3933.69" y2="3776.94"/>
<line class="st1" x1="2737.22" y1="3533.27" x2="3929.12" y2="3533.27"/>
<line class="st1" x1="2737.22" y1="3289.6" x2="3929.12" y2="3289.6"/>
<line class="st1" x1="2710.62" y1="3045.92" x2="3902.51" y2="3045.92"/>
<line class="st1" x1="2710.62" y1="2802.25" x2="3902.51" y2="2802.25"/>
<line class="st1" x1="2710.62" y1="2558.58" x2="3902.51" y2="2558.58"/>
<line class="st2" x1="3153.28" y1="4262.71" x2="3833.69" y2="1262.71"/>
<line class="st2" x1="1977.89" y1="4232.43" x2="2658.3" y2="1232.43"/>
<line class="st2" x1="2559.48" y1="1630.08" x2="3742.23" y2="1630.08"/>
<line class="st2" x1="2478.95" y1="1994.99" x2="3661.7" y2="1994.99"/>
<line class="st2" x1="2400.53" y1="2359.91" x2="3583.28" y2="2359.91"/>
<line class="st2" x1="2309.32" y1="2724.82" x2="3492.06" y2="2724.82"/>
<line class="st2" x1="2226.16" y1="3089.73" x2="3408.91" y2="3089.73"/>
<line class="st2" x1="2150.42" y1="3454.64" x2="3333.17" y2="3454.64"/>
<line class="st2" x1="2056.69" y1="3819.56" x2="3239.43" y2="3819.56"/>
</svg>
