<?xml version="1.0" encoding="UTF-8"?>
<!DOCTYPE svg PUBLIC "-//W3C//DTD SVG 1.1//EN" "http://www.w3.org/Graphics/SVG/1.1/DTD/svg11.dtd">
<!-- Creator: CorelDRAW -->
<svg xmlns="http://www.w3.org/2000/svg" xml:space="preserve" width="18.3333in" height="13.3333in" version="1.1" style="shape-rendering:geometricPrecision; text-rendering:geometricPrecision; image-rendering:optimizeQuality; fill-rule:evenodd; clip-rule:evenodd"
viewBox="0 0 950.03 690.93"
 xmlns:xlink="http://www.w3.org/1999/xlink"
 xmlns:xodm="http://www.corel.com/coreldraw/odm/2003">
 <defs>
  <style type="text/css">
   <![CDATA[
    .fil12 {fill:black}
    .fil13 {fill:#2D2A28}
    .fil5 {fill:#4095A8}
    .fil4 {fill:#60B2C4}
    .fil6 {fill:#62A5B2}
    .fil2 {fill:#84C9D9}
    .fil9 {fill:#8F2302}
    .fil3 {fill:#9AD0DA}
    .fil10 {fill:#A34729}
    .fil7 {fill:#DB4011}
    .fil11 {fill:#E74E25}
    .fil8 {fill:#EB6A46}
    .fil1 {fill:#EBA7B6}
    .fil16 {fill:#FA7752}
    .fil17 {fill:#FB8C6B}
    .fil0 {fill:#FCCAD5}
    .fil19 {fill:#FCECDD}
    .fil14 {fill:#8F2302;fill-rule:nonzero}
    .fil15 {fill:#A34729;fill-rule:nonzero}
    .fil18 {fill:#E0FAFF;fill-rule:nonzero}
   ]]>
  </style>
 </defs>
 <g id="Layer_x0020_1">
  <metadata id="CorelCorpID_0Corel-Layer"/>
  <g id="_2130965738096">
   <polygon class="fil0" points="950.03,690.93 -0,690.93 -0,0 950.03,0 "/>
   <path class="fil1" d="M790.8 92.3c0,0 -537.2,0 -602.39,0 -65.19,0 -75.46,25.42 -75.46,113.04 0,87.62 0,296.37 0,347.17 0,50.81 4.92,76.75 54.65,79.99 49.72,3.24 524.27,0 581.56,0 57.29,0 110.26,5.4 110.26,-52.97 0,-58.37 0,-357.8 0,-407.53 0,-49.72 -17.3,-81.07 -68.62,-79.71z"/>
   <path class="fil2" d="M783.99 73.23c0,0 -537.2,0 -602.39,0 -65.19,0 -75.46,25.42 -75.46,113.04 0,87.62 0,296.37 0,347.17 0,50.81 4.92,76.75 54.65,79.99 49.72,3.24 524.27,0 581.56,0 57.29,0 110.26,5.4 110.26,-52.97 0,-58.37 0,-357.8 0,-407.53 0,-49.72 -17.3,-81.07 -68.62,-79.71z"/>
   <path class="fil3" d="M542.57 525.96c67.75,33.37 271.14,-366.7 185.76,-384.89 -77.54,-16.52 -253.51,351.52 -185.76,384.89zm-170.53 0c67.75,33.37 271.14,-366.7 185.76,-384.89 -77.54,-16.52 -253.51,351.52 -185.76,384.89zm-176.56 0c67.75,33.37 271.14,-366.7 185.76,-384.89 -77.54,-16.52 -253.51,351.52 -185.76,384.89z"/>
   <path class="fil4" d="M758.77 105.89c0,0 -492.72,0 -552.52,0 -59.8,0 -69.21,22.36 -69.21,99.4 0,77.05 0,260.62 0,305.3 0,44.68 4.52,67.49 50.12,70.34 45.61,2.85 480.86,0 533.41,0 52.55,0 101.13,4.75 101.13,-46.58 0,-51.33 0,-314.64 0,-358.37 0,-43.73 -15.86,-71.29 -62.94,-70.1zm-21.7 18.5c0,0 -121.32,-18.5 -246.19,-18.5 -116.81,0 -236.74,18.5 -263.4,18.5 -55.15,0 -63.83,20.62 -63.83,91.68 0,71.06 0,240.37 0,281.58 0,41.21 4.17,62.25 46.23,64.88 22.69,1.42 150.65,19.78 270.66,19.38 102.49,-0.34 198.98,-19.38 221.31,-19.38 48.47,0 93.27,4.38 93.27,-42.96 0,-47.34 0,-290.2 0,-330.53 0,-40.33 -14.63,-65.75 -58.05,-64.65z"/>
   <path class="fil5" d="M344.54 308.05c-9.31,-8.47 -23.76,-18.88 -40.7,-21.63 0,0 7.26,-12.34 6.29,-22.99 0,0 48.53,-19.05 53.15,-49.09 0,0 54.07,-19.94 55.39,-49.98 0,0 -36.96,14.52 -52.15,7.59 0,0 23.43,-28.71 53.8,-26.07 0,0 -52.48,-27.39 -86.8,23.1 -7.71,-2.13 -59.62,39.33 -53.11,66.07 -12.64,2.13 -34.15,53.41 -4.2,70.93 0,0 -14.73,28.39 44.5,49.52 0.33,3.09 0.75,6.26 1.28,9.45 -10.25,-3.03 -23.9,-7.36 -29.68,-10.43 -9.8,-5.22 -11.59,-2.58 -11.59,-2.58 0,0 -22.23,-33.11 -30.6,-33.23 0,0 -18.18,-37.49 -27.25,-37.49 0,0 -10.52,-15.57 -12.09,-23.41 -1.57,-7.84 -0.39,-12.95 -2.97,-12.95 -2.58,0 -3.2,11.97 -1.72,19.6 1.48,7.64 8.17,17.93 11.35,19.73 0,0 -3.87,8.35 19.43,35.79 0,0 -1.21,24.03 36.21,43.49 0,0 -0.9,3.08 8.44,6.75 8.29,3.25 31.91,13.85 45.57,15.96 0.72,2.2 1.5,4.36 2.34,6.46 -7.12,-2.73 -32.47,-12.15 -36.63,-9.6 0,0 -48.04,-19.87 -56.33,-11.11 0,0 -42.05,0.83 -43.23,9.77 0,0 -14.39,10.26 -15.3,24.14 -0.91,13.88 2.24,8.58 3.44,3.81 1.19,-4.78 10.75,-16.89 16.29,-19.28 0,0 11.85,3.49 48.12,-6.32 0,0 14.6,12.25 40.05,11.97 0,0 1.3,4.54 9.97,6.22 8.67,1.68 30.48,8.39 38.45,11.46 3.32,1.28 7.58,2.74 12.06,3.93 2.81,2.36 6.02,4.82 9.53,7.31 -13.34,-2 -31.17,-4.72 -41.58,-6.5 -18.17,-3.12 -33.66,-5.72 -35.02,-3 0,0 -55.09,17.98 -53.21,26.09 0,0 -32.97,24.92 -25.09,36.24 0,0 -1.16,4.03 1.37,13.03 2.53,9.01 8.8,24.88 12.2,24.81 3.39,-0.06 -3.7,-11.23 -3.89,-21.28 -0.19,-10.05 0,-14.31 -0.8,-15.79 0,0 33.61,-19.31 37.32,-34.05 0,0 26.69,-4.79 31.79,-12.79 0,0 86.63,18.68 111.37,14.09 2.78,1.47 5.56,2.89 8.31,4.27 -4.21,0.76 -9.46,2.6 -10.93,7.12 0,0 -55.31,-13.67 -60.93,-4.5 0,0 -34.55,0.64 -30.91,26.55 0,0 -4.96,1.55 -12.04,17.54 -7.09,15.99 -12.54,21.45 -7.09,26.17 0,0 -4.83,16.79 10.12,26.58 14.94,9.78 41.4,19.6 59.78,-5.14 0,0 -14.85,-20.99 -33.5,-23.33 0,0 9.75,-33.06 4.66,-44.72 0,0 5.93,-4.87 6.57,-9.33 0,0 38.36,13.35 56.38,3.18 0,0 19.11,5.48 24.56,-7.34 0,0 18.7,4.65 28.65,1.85 3.99,1.15 7.36,1.82 9.87,1.89 17.29,0.44 34.14,0 34.14,0 0,0 16.85,0.44 34.14,0 2.71,-0.07 6.43,-0.84 10.86,-2.18 9.66,3.39 29.57,-1.56 29.57,-1.56 5.45,12.82 24.56,7.34 24.56,7.34 18.02,10.17 56.38,-3.18 56.38,-3.18 0.64,4.45 6.57,9.33 6.57,9.33 -5.09,11.66 4.66,44.72 4.66,44.72 -18.65,2.33 -33.5,23.33 -33.5,23.33 18.38,24.74 44.84,14.92 59.78,5.14 14.94,-9.78 10.12,-26.58 10.12,-26.58 5.45,-4.73 0,-10.18 -7.09,-26.17 -7.09,-15.99 -12.04,-17.54 -12.04,-17.54 3.63,-25.92 -30.91,-26.55 -30.91,-26.55 -5.63,-9.16 -60.93,4.5 -60.93,4.5 -1.65,-5.06 -8.04,-6.77 -12.4,-7.35 2.79,-1.39 5.61,-2.84 8.42,-4.33 22.71,5.61 112.73,-13.79 112.73,-13.79 5.1,8 31.79,12.79 31.79,12.79 3.72,14.74 37.32,34.05 37.32,34.05 -0.8,1.48 -0.62,5.74 -0.8,15.79 -0.19,10.05 -7.28,21.22 -3.89,21.28 3.39,0.06 9.66,-15.81 12.2,-24.81 2.53,-9.01 1.37,-13.03 1.37,-13.03 7.87,-11.32 -25.09,-36.24 -25.09,-36.24 1.87,-8.11 -53.21,-26.09 -53.21,-26.09 -1.36,-2.72 -16.85,-0.12 -35.02,3 -11.05,1.9 -30.48,4.85 -44.01,6.87 3.37,-2.38 6.47,-4.72 9.22,-6.99 5.46,-1.28 10.82,-3.08 14.8,-4.62 7.97,-3.08 29.78,-9.79 38.45,-11.46 8.67,-1.68 9.97,-6.22 9.97,-6.22 25.45,0.28 40.05,-11.97 40.05,-11.97 36.27,9.81 48.12,6.32 48.12,6.32 5.54,2.39 15.1,14.5 16.29,19.28 1.19,4.78 4.34,10.07 3.44,-3.81 -0.91,-13.88 -15.3,-24.14 -15.3,-24.14 -1.18,-8.94 -43.23,-9.77 -43.23,-9.77 -8.29,-8.76 -56.33,11.11 -56.33,11.11 -4.85,-2.97 -38.49,10.33 -38.49,10.33l-0.52 0.41c0.98,-2.38 1.89,-4.84 2.71,-7.34 13.22,-1.27 38.87,-12.8 47.58,-16.22 9.35,-3.67 8.44,-6.75 8.44,-6.75 37.42,-19.46 36.21,-43.49 36.21,-43.49 23.3,-27.45 19.43,-35.79 19.43,-35.79 3.18,-1.8 9.86,-12.09 11.35,-19.73 1.49,-7.64 0.86,-19.6 -1.72,-19.6 -2.58,0 -1.4,5.11 -2.97,12.95 -1.57,7.84 -12.09,23.41 -12.09,23.41 -9.08,0 -27.25,37.49 -27.25,37.49 -8.37,0.12 -30.6,33.23 -30.6,33.23 0,0 -1.79,-2.63 -11.59,2.58 -6.16,3.28 -21.3,7.98 -31.7,11.03 0.63,-3.7 1.12,-7.37 1.47,-10.92l1.09 1.14c60.1,-21.15 45.24,-49.78 45.24,-49.78 29.96,-17.52 8.44,-68.79 -4.2,-70.93 6.51,-26.73 -45.4,-68.2 -53.11,-66.07 -34.32,-50.5 -86.8,-23.1 -86.8,-23.1 30.36,-2.64 53.8,26.07 53.8,26.07 -15.18,6.93 -52.15,-7.59 -52.15,-7.59 1.32,30.03 55.39,49.98 55.39,49.98 4.62,30.03 53.15,49.09 53.15,49.09 -0.97,10.65 6.29,22.99 6.29,22.99 -17.1,2.78 -31.66,13.36 -40.96,21.87 -3.99,-0.65 -6.91,-0.59 -6.91,-0.59 -6.79,-10.73 -20.81,-8.98 -20.81,-8.98 -5.7,-11.83 -21.25,-10.08 -21.25,-10.08 -8.98,-13.14 -19.06,-8.76 -19.06,-8.76 -6.79,-9.86 -18.62,-5.91 -18.62,-5.91 -10.3,-12.92 -26.29,-5.7 -26.29,-5.7 -7.26,-8.22 -16.33,-5.9 -22.1,-3.01 -5.77,-2.89 -14.83,-5.22 -22.1,3.01 0,0 -15.99,-7.23 -26.29,5.7 0,0 -11.83,-3.94 -18.62,5.91 0,0 -10.08,-4.38 -19.06,8.76 0,0 -15.55,-1.75 -21.25,10.08 0,0 -14.02,-1.75 -20.81,8.98 0,0 -2.14,-0.04 -5.26,0.35z"/>
   <path class="fil6" d="M344.54 308.05c-9.31,-8.47 -23.76,-18.88 -40.7,-21.63 0,0 7.26,-12.34 6.29,-22.99 0,0 48.53,-19.05 53.15,-49.09 0,0 21.53,-7.94 37.75,-21.35 0.9,-8.54 1.04,-16.27 0.34,-23.03 -11.72,3.16 -26.55,5.79 -34.85,1.99 0,0 11.4,-13.96 28.6,-21.52 -3.29,-4.82 -7.85,-8.07 -13.88,-9.36 -4.68,-1 -9.72,-0.56 -15.04,1.08 -11.27,4.11 -22.74,12.2 -32.68,26.83 -1.43,-0.4 -4.4,0.72 -8.23,2.96 -14.86,15.69 -30.32,36.33 -45.38,59.8 0.08,1.12 0.24,2.23 0.5,3.31 -1.19,0.2 -2.47,0.84 -3.77,1.85 -4.11,6.55 -8.19,13.29 -12.21,20.19 -5.65,16.77 -5.77,38.62 11.78,48.88 0,0 -14.73,28.39 44.5,49.52 0.33,3.09 0.75,6.26 1.28,9.45 -10.25,-3.03 -23.9,-7.36 -29.68,-10.43 -9.8,-5.22 -11.59,-2.58 -11.59,-2.58 0,0 -22.23,-33.11 -30.6,-33.23 0,0 -4.17,-8.59 -9.51,-17.55 -2.44,4.86 -4.85,9.74 -7.2,14.65 1.08,1.34 2.23,2.73 3.46,4.18 0,0 -1.21,24.03 36.21,43.49 0,0 -0.9,3.08 8.44,6.75 8.29,3.25 31.91,13.85 45.57,15.96 0.16,0.49 0.32,0.97 0.49,1.46 15.93,-28.88 30.68,-59.48 42.77,-88.94 -1.96,-0.18 -14.3,-0.85 -20.54,9.01 0,0 -2.14,-0.04 -5.26,0.35zm-18.94 83.14c-9.81,-3.63 -29.21,-10.37 -32.8,-8.16 0,0 -48.04,-19.87 -56.33,-11.11 0,0 -15.92,0.32 -28.45,2.64 -2.11,5.5 -4.12,10.95 -6.03,16.34 6.16,0.32 19.49,-0.28 43.8,-6.86 0,0 14.6,12.25 40.05,11.97 0,0 1.3,4.54 9.97,6.22 4.5,0.87 12.54,3.1 20.35,5.47 3.18,-5.42 6.33,-10.93 9.44,-16.51zm-15.44 26.54c-16.34,-2.78 -29.66,-4.81 -30.91,-2.3 0,0 -55.09,17.98 -53.21,26.09 0,0 -32.97,24.92 -25.09,36.24 0,0 -1.16,4.03 1.37,13.03 2.53,9.01 8.8,24.88 12.2,24.81 3.39,-0.06 -3.7,-11.23 -3.89,-21.28 -0.19,-10.05 0,-14.31 -0.8,-15.79 0,0 33.61,-19.31 37.32,-34.05 0,0 26.69,-4.79 31.79,-12.79 0,0 8.05,1.74 19.94,4.02 3.78,-5.84 7.55,-11.84 11.29,-17.98zm52.3 27.79c11.6,1.11 21.66,1.41 27.84,0.27 2.78,1.47 5.56,2.89 8.31,4.27 -4.21,0.76 -9.46,2.6 -10.93,7.12 0,0 -12.7,-3.14 -26.55,-5.4 -1.57,7.8 -2.73,15.18 -3.44,22.08 8.49,0.52 16.93,-0.23 23.03,-3.67 0,0 19.11,5.48 24.56,-7.34 0,0 18.7,4.65 28.65,1.85 3.99,1.15 7.36,1.82 9.87,1.89 3.44,0.09 6.87,0.14 10.14,0.17 37.28,-49.98 76.11,-122.55 100.28,-186.57 -5.24,-2.04 -9.28,-0.29 -9.28,-0.29 -6.79,-9.86 -18.62,-5.91 -18.62,-5.91 -10.3,-12.92 -26.29,-5.7 -26.29,-5.7 -7.26,-8.22 -16.33,-5.9 -22.1,-3.01 -5.77,-2.89 -14.83,-5.22 -22.1,3.01 0,0 -12.23,-5.53 -22.18,1.72 -32.24,57.9 -59.8,124.46 -71.19,175.53zm166.79 19.99c10.11,0.59 23.26,-2.67 23.26,-2.67 5.45,12.82 24.56,7.34 24.56,7.34 11.68,6.59 31.9,3.3 44.68,0.17 4.2,-5.52 8.43,-11.35 12.66,-17.43 -2.08,-0.23 -3.38,-0.25 -3.38,-0.25 -5.63,-9.16 -60.93,4.5 -60.93,4.5 -1.65,-5.06 -8.04,-6.77 -12.4,-7.35 2.79,-1.39 5.61,-2.84 8.42,-4.33 13.39,3.31 50.14,-2.07 78.08,-7.05 4.74,-7.24 9.46,-14.74 14.13,-22.46 -4.53,0.7 -9.56,1.56 -14.81,2.46 -11.05,1.9 -30.48,4.85 -44.01,6.87 3.37,-2.38 6.47,-4.72 9.22,-6.99 5.46,-1.28 10.82,-3.08 14.8,-4.62 7.97,-3.08 29.78,-9.79 38.45,-11.46 2.33,-0.45 4.13,-1.11 5.52,-1.83 4.34,-7.56 8.6,-15.26 12.78,-23.07 -8.71,2.98 -15.29,5.71 -15.29,5.71 -4.85,-2.97 -38.49,10.33 -38.49,10.33l-0.52 0.41c0.98,-2.38 1.89,-4.84 2.71,-7.34 13.22,-1.27 38.87,-12.8 47.58,-16.22 9.35,-3.67 8.44,-6.75 8.44,-6.75 1.36,-0.71 2.66,-1.42 3.92,-2.13 9.38,-18.42 18.12,-37.17 25.89,-55.58 -4,7.09 -6.84,12.96 -6.84,12.96 -8.37,0.12 -30.6,33.23 -30.6,33.23 0,0 -1.79,-2.63 -11.59,2.58 -6.16,3.28 -21.3,7.98 -31.7,11.03 0.63,-3.7 1.12,-7.37 1.47,-10.92l1.09 1.14c60.1,-21.15 45.24,-49.78 45.24,-49.78 29.96,-17.52 8.44,-68.79 -4.2,-70.93 3.27,-13.44 -8.21,-30.59 -21.43,-44.06 -12.76,16 -25.69,34.94 -38.18,55.59 14.33,10.75 29.88,16.85 29.88,16.85 -0.97,10.65 6.29,22.99 6.29,22.99 -17.1,2.78 -31.66,13.36 -40.96,21.87 -3.99,-0.65 -6.91,-0.59 -6.91,-0.59 -4.59,-7.25 -12.47,-8.8 -17.1,-9.05 -29.67,58.57 -53.11,121.64 -59.71,166.86zm23.29 -324.91c-9.16,2.19 -15.08,5.28 -15.08,5.28 14.94,-1.3 28.19,4.99 37.81,11.72 -3.16,-8.85 -8.8,-14.67 -17.46,-16.52 -1.7,-0.36 -3.47,-0.48 -5.27,-0.47zm25.7 33.17c-17.04,-0.74 -39.13,-9.41 -39.13,-9.41 0.8,18.19 20.95,32.68 36.71,41.27 2.05,-11.94 2.93,-22.69 2.42,-31.86z"/>
   <path class="fil7" d="M355.71 308.47c0,0 -22.1,-28.5 -51.87,-33.34 0,0 7.26,-12.34 6.29,-22.99 0,0 48.53,-19.05 53.15,-49.09 0,0 54.07,-19.94 55.39,-49.98 0,0 -36.96,14.52 -52.15,7.59 0,0 23.43,-28.71 53.8,-26.07 0,0 -52.48,-27.39 -86.8,23.1 -7.71,-2.13 -59.62,39.33 -53.11,66.07 -12.64,2.13 -34.15,53.41 -4.2,70.93 0,0 -14.86,28.63 45.24,49.78l34.26 -36zm246.35 0c0,0 22.1,-28.5 51.87,-33.34 0,0 -7.26,-12.34 -6.29,-22.99 0,0 -48.53,-19.05 -53.15,-49.09 0,0 -54.07,-19.94 -55.39,-49.98 0,0 36.96,14.52 52.15,7.59 0,0 -23.43,-28.71 -53.8,-26.07 0,0 52.48,-27.39 86.8,23.1 7.71,-2.13 59.62,39.33 53.11,66.07 12.64,2.13 34.15,53.41 4.2,70.93 0,0 14.86,28.63 -45.24,49.78l-34.26 -36zm21.08 48.79c0,0 32.52,-8.82 42.32,-14.04 9.8,-5.22 11.59,-2.58 11.59,-2.58 0,0 22.23,-33.11 30.6,-33.23 0,0 18.18,-37.49 27.25,-37.49 0,0 10.52,-15.57 12.09,-23.41 1.57,-7.84 0.39,-12.95 2.97,-12.95 2.58,0 3.2,11.97 1.72,19.6 -1.48,7.64 -8.17,17.93 -11.35,19.73 0,0 3.86,8.35 -19.43,35.79 0,0 1.21,24.03 -36.21,43.49 0,0 0.9,3.08 -8.44,6.75 -9.35,3.67 -38.21,16.68 -50.28,16.33 0,0 -4.61,-8.28 -2.83,-17.98zm3.34 24.8c0,0 33.64,-13.3 38.49,-10.33 0,0 48.04,-19.87 56.33,-11.11 0,0 42.05,0.83 43.23,9.77 0,0 14.39,10.26 15.3,24.14 0.91,13.88 -2.24,8.58 -3.44,3.81 -1.19,-4.78 -10.75,-16.89 -16.29,-19.28 0,0 -11.85,3.49 -48.12,-6.32 0,0 -14.6,12.25 -40.05,11.97 0,0 -1.31,4.54 -9.97,6.22 -8.67,1.68 -30.48,8.39 -38.45,11.46 -7.97,3.08 -21.41,7.21 -30.21,6.09l33.18 -26.42zm-41.96 34.16c0,0 40.82,-5.97 58.99,-9.09 18.17,-3.12 33.66,-5.72 35.02,-3 0,0 55.09,17.98 53.21,26.09 0,0 32.96,24.92 25.09,36.24 0,0 1.16,4.03 -1.37,13.03 -2.53,9.01 -8.8,24.88 -12.2,24.81 -3.39,-0.06 3.7,-11.23 3.89,-21.28 0.19,-10.05 0,-14.31 0.8,-15.79 0,0 -33.61,-19.31 -37.32,-34.05 0,0 -26.69,-4.79 -31.79,-12.79 0,0 -101.95,21.98 -116.23,12.39l21.91 -16.57zm-31.05 22.01c0,0 14.05,-0.24 16.63,7.64 0,0 55.3,-13.67 60.93,-4.5 0,0 34.55,0.64 30.91,26.55 0,0 4.96,1.55 12.04,17.54 7.09,15.99 12.54,21.45 7.09,26.17 0,0 4.83,16.79 -10.12,26.58 -14.94,9.78 -41.4,19.6 -59.78,-5.14 0,0 14.85,-20.99 33.5,-23.33 0,0 -9.75,-33.06 -4.66,-44.72 0,0 -5.93,-4.87 -6.57,-9.33 0,0 -38.36,13.35 -56.38,3.18 0,0 -19.11,5.48 -24.56,-7.34 0,0 -28.37,7.05 -33.82,-1.44l34.78 -11.86zm-149.17 0c0,0 -14.05,-0.24 -16.63,7.64 0,0 -55.3,-13.67 -60.93,-4.5 0,0 -34.55,0.64 -30.91,26.55 0,0 -4.96,1.55 -12.04,17.54 -7.09,15.99 -12.54,21.45 -7.09,26.17 0,0 -4.83,16.79 10.12,26.58 14.94,9.78 41.4,19.6 59.78,-5.14 0,0 -14.85,-20.99 -33.5,-23.33 0,0 9.75,-33.06 4.66,-44.72 0,0 5.93,-4.87 6.57,-9.33 0,0 38.36,13.35 56.38,3.18 0,0 19.11,5.48 24.56,-7.34 0,0 28.37,7.05 33.82,-1.44l-34.78 -11.86zm-31.05 -22.01c0,0 -40.82,-5.97 -58.99,-9.09 -18.17,-3.12 -33.66,-5.72 -35.02,-3 0,0 -55.09,17.98 -53.21,26.09 0,0 -32.96,24.92 -25.09,36.24 0,0 -1.16,4.03 1.37,13.03 2.53,9.01 8.8,24.88 12.2,24.81 3.39,-0.06 -3.7,-11.23 -3.89,-21.28 -0.19,-10.05 0,-14.31 -0.8,-15.79 0,0 33.61,-19.31 37.32,-34.05 0,0 26.69,-4.79 31.79,-12.79 0,0 101.95,21.98 116.23,12.39l-21.91 -16.57zm-41.96 -34.16c0,0 -33.64,-13.3 -38.49,-10.33 0,0 -48.04,-19.87 -56.33,-11.11 0,0 -42.05,0.83 -43.23,9.77 0,0 -14.39,10.26 -15.3,24.14 -0.91,13.88 2.24,8.58 3.44,3.81 1.19,-4.78 10.75,-16.89 16.29,-19.28 0,0 11.85,3.49 48.12,-6.32 0,0 14.6,12.25 40.05,11.97 0,0 1.31,4.54 9.97,6.22 8.67,1.68 30.48,8.39 38.45,11.46 7.97,3.08 21.41,7.21 30.21,6.09l-33.18 -26.42zm3.34 -24.8c0,0 -32.52,-8.82 -42.32,-14.04 -9.8,-5.22 -11.59,-2.58 -11.59,-2.58 0,0 -22.23,-33.11 -30.6,-33.23 0,0 -18.18,-37.49 -27.25,-37.49 0,0 -10.52,-15.57 -12.09,-23.41 -1.57,-7.84 -0.39,-12.95 -2.97,-12.95 -2.58,0 -3.2,11.97 -1.72,19.6 1.48,7.64 8.17,17.93 11.35,19.73 0,0 -3.87,8.35 19.43,35.79 0,0 -1.21,24.03 36.21,43.49 0,0 -0.9,3.08 8.44,6.75 9.35,3.67 38.21,16.68 50.28,16.33 0,0 4.61,-8.28 2.83,-17.98z"/>
   <path class="fil8" d="M355.71 308.47c0,0 -22.1,-28.5 -51.87,-33.34 0,0 7.26,-12.34 6.29,-22.99 0,0 48.53,-19.05 53.15,-49.09 0,0 22.21,-8.19 38.51,-21.98 0.16,-8.43 -0.64,-15.78 -2.51,-21.85 -11.35,2.9 -24.94,5.01 -32.76,1.45 0,0 7.98,-9.78 20.66,-17.4 -1.81,-0.95 -3.76,-1.73 -5.95,-2.19 -31.46,-6.7 -79.12,49.9 -120.13,121.76 -0.61,12.48 3.14,24.86 15.1,31.85 0,0 -14.86,28.63 45.24,49.78l34.26 -36zm276.46 147.66c3.04,-4.3 6.08,-8.75 9.12,-13.3 -5.66,-1.36 -10.26,-1.45 -10.26,-1.45 -5.63,-9.16 -60.93,4.5 -60.93,4.5 -2.57,-7.88 -16.63,-7.64 -16.63,-7.64l-20.42 6.97c-0.69,3.08 -1.33,6.12 -1.9,9.08 9.78,0.13 21.35,-2.74 21.35,-2.74 5.45,12.82 24.56,7.34 24.56,7.34 16.06,9.07 48.3,-0.56 55.1,-2.76zm20.2 -30.47c4.46,-7.14 8.88,-14.49 13.24,-22.01 -6.08,0.75 -13.81,2.07 -22.09,3.49 -18.17,3.12 -58.99,9.09 -58.99,9.09l-21.91 16.57c9.57,6.42 58.51,-1.33 89.75,-7.14zm23.94 -41.02c3.77,-6.91 7.48,-13.89 11.1,-20.94 -11.98,3.72 -22.42,8.04 -22.42,8.04 -4.85,-2.97 -38.49,10.33 -38.49,10.33l-33.18 26.42c8.81,1.12 22.24,-3.01 30.21,-6.09 7.97,-3.08 29.78,-9.79 38.45,-11.46 8.67,-1.68 9.97,-6.22 9.97,-6.22 1.49,0.02 2.94,-0.01 4.36,-0.08zm20.47 -39.77c11.08,-22.93 21.04,-46.04 29.22,-68.08 -8.73,10.82 -18.33,30.62 -18.33,30.62 -8.37,0.12 -30.6,33.23 -30.6,33.23 0,0 -1.79,-2.63 -11.59,2.58 -9.8,5.22 -42.32,14.04 -42.32,14.04 -1.78,9.7 2.83,17.98 2.83,17.98 12.07,0.35 40.94,-12.66 50.28,-16.33 9.35,-3.67 8.44,-6.75 8.44,-6.75 4.58,-2.38 8.58,-4.83 12.07,-7.3zm-35.93 -159.9c-12.71,15.22 -25.66,33.54 -38.26,53.74 12.79,8.61 25.05,13.42 25.05,13.42 -0.97,10.65 6.29,22.99 6.29,22.99 -29.77,4.84 -51.87,33.34 -51.87,33.34l34.26 36c60.1,-21.15 45.24,-49.78 45.24,-49.78 29.96,-17.52 8.44,-68.79 -4.2,-70.93 2.86,-11.74 -5.55,-26.31 -16.52,-38.79zm-83.51 10.19c1.52,-12.85 1.39,-23.96 -0.66,-32.76 -16.8,-1.17 -37.57,-9.33 -37.57,-9.33 0.83,18.78 22.27,33.61 38.22,42.09zm-206.99 220.64c-1.93,6.37 -3.7,12.61 -5.26,18.67 14.33,1.24 25.92,1.12 30.08,-1.67l-21.91 -16.57c0,0 -1.06,-0.16 -2.91,-0.43zm-6.83 25.08c-1.81,7.59 -3.27,14.87 -4.37,21.76 7.99,0.35 15.81,-0.5 21.56,-3.75 0,0 19.11,5.48 24.56,-7.34 0,0 28.37,7.05 33.82,-1.44l-34.78 -11.86c0,0 -14.05,-0.24 -16.63,7.64 0,0 -11.28,-2.79 -24.17,-5zm-58.22 -15.24c3.7,-5.92 7.37,-11.97 11,-18.15 -0.7,-0.12 -1.37,-0.23 -2.02,-0.34 -18.17,-3.12 -33.66,-5.72 -35.02,-3 0,0 -55.09,17.98 -53.21,26.09 0,0 -32.96,24.92 -25.09,36.24 0,0 -1.16,4.03 1.37,13.03 2.53,9.01 8.8,24.88 12.2,24.81 3.39,-0.06 -3.7,-11.23 -3.89,-21.28 -0.19,-10.05 0,-14.31 -0.8,-15.79 0,0 33.61,-19.31 37.32,-34.05 0,0 26.69,-4.79 31.79,-12.79 0,0 11.04,2.38 26.36,5.23zm16.41 -27.51c3.05,-5.36 6.06,-10.79 9.04,-16.28 -4.38,-1.7 -33.45,-12.86 -37.94,-10.11 0,0 -48.04,-19.87 -56.33,-11.11 0,0 -12.23,0.24 -23.69,1.87 -2.33,5.76 -4.56,11.49 -6.69,17.16 7.28,-0.15 19.82,-1.53 39.7,-6.91 0,0 14.6,12.25 40.05,11.97 0,0 1.31,4.54 9.97,6.22 5.58,1.08 16.62,4.25 25.89,7.19zm-78.05 -102.99c-2.3,4.49 -4.56,9.01 -6.79,13.55l0 0c0,0 -1.21,24.03 36.21,43.49 0,0 -0.9,3.08 8.44,6.75 9.35,3.67 38.21,16.68 50.28,16.33 0,0 4.61,-8.28 2.83,-17.98 0,0 -32.52,-8.82 -42.32,-14.04 -9.8,-5.22 -11.59,-2.58 -11.59,-2.58 0,0 -22.23,-33.11 -30.6,-33.23 0,0 -2.66,-5.5 -6.46,-12.28z"/>
   <path class="fil9" d="M355.71 308.47c0,0 -4.12,-5.31 -11.2,-11.74 -0.12,0.18 -0.25,0.37 -0.37,0.56 0,0 -22.64,-0.46 -28.82,14.87 -2.16,5.35 -2.97,16.29 -2.07,29.2 2.56,1.05 5.29,2.09 8.19,3.12l34.26 -36zm-41.46 42.83c0.92,7.08 2.34,14.45 4.29,21.6 5.2,1.49 9.88,2.44 13.25,2.34 0,0 4.61,-8.28 2.83,-17.98 0,0 -9.87,-2.68 -20.38,-5.96zm5.75 26.57c2.69,8.54 6.2,16.58 10.63,23.2 1.39,0.49 2.61,0.93 3.62,1.32 7.97,3.08 21.41,7.21 30.21,6.09l-33.18 -26.42c0,0 -4.93,-1.95 -11.28,-4.19zm19.44 33.28c8.72,7.54 21.58,16.04 35.4,23.94 9.69,0.39 17.15,-0.18 20.31,-2.31l-21.91 -16.57c0,0 -16.91,-2.47 -33.8,-5.06zm49.93 31.85c6.52,3.38 13.01,6.51 19.17,9.26 7.62,1.55 26.24,4.55 30.54,-2.16l-34.78 -11.86c0,0 -10.37,-0.18 -14.93,4.77zm156.52 9.89c6.96,-3.06 14.4,-6.65 21.84,-10.54 -4.82,-4.28 -14.26,-4.12 -14.26,-4.12l-34.78 11.86c3.77,5.87 18.47,4.32 27.2,2.8zm34.99 -17.73c13.65,-7.8 26.37,-16.18 35.11,-23.65 -16.09,2.46 -31.47,4.71 -31.47,4.71l-21.91 16.57c2.94,1.97 9.58,2.61 18.28,2.37zm43.72 -33.18c4.58,-6.6 8.22,-14.7 11,-23.34 -5.27,1.9 -9.12,3.42 -9.12,3.42l-33.18 26.42c8.81,1.12 22.24,-3.01 30.21,-6.09 0.34,-0.13 0.7,-0.27 1.08,-0.41zm12.55 -28.51c1.98,-7.12 3.42,-14.47 4.37,-21.55 -9.72,2.99 -18.37,5.34 -18.37,5.34 -1.78,9.7 2.83,17.98 2.83,17.98 2.91,0.09 6.81,-0.61 11.18,-1.76zm5.39 -31.33c0.99,-13.25 0.18,-24.53 -2.02,-29.99 -5.43,-13.46 -23.56,-14.75 -27.89,-14.86 -6.7,6.17 -10.58,11.18 -10.58,11.18l34.26 36c2.17,-0.76 4.24,-1.54 6.22,-2.32z"/>
   <path class="fil10" d="M355.71 308.47c0,0 -4.12,-5.31 -11.2,-11.74 -0.12,0.18 -0.25,0.37 -0.37,0.56 0,0 -22.64,-0.46 -28.82,14.87 -2.16,5.35 -2.97,16.29 -2.07,29.2 2.56,1.05 5.29,2.09 8.19,3.12l34.26 -36zm177.34 136.73c-0.69,3.09 -1.33,6.11 -1.9,9.08 5.05,0.07 10.58,-0.66 14.74,-1.39 6.96,-3.06 14.4,-6.65 21.84,-10.54 -4.82,-4.28 -14.26,-4.12 -14.26,-4.12l-20.42 6.97zm-162.71 -29.41c-1.47,4.84 -2.83,9.59 -4.08,14.24 2.8,1.7 5.67,3.4 8.58,5.06 9.69,0.39 17.15,-0.18 20.31,-2.31l-21.91 -16.57c0,0 -1.06,-0.15 -2.91,-0.43zm-45 -24.15c1.81,-3.25 3.61,-6.51 5.39,-9.8 -1.46,-0.57 -5.63,-2.18 -10.73,-3.97 1.51,4.8 3.29,9.45 5.34,13.77zm-11.09 -40.34c0.92,7.08 2.34,14.45 4.29,21.6 5.2,1.49 9.88,2.44 13.25,2.34 0,0 4.61,-8.28 2.83,-17.98 0,0 -9.87,-2.68 -20.38,-5.96zm75.12 91.7c6.52,3.38 13.01,6.51 19.17,9.26 7.62,1.55 26.24,4.55 30.54,-2.16l-34.78 -11.86c0,0 -10.37,-0.18 -14.93,4.77zm191.51 -7.84c13.65,-7.8 26.37,-16.18 35.11,-23.65 -16.09,2.46 -31.47,4.71 -31.47,4.71l-21.91 16.57c2.94,1.97 9.58,2.61 18.28,2.37zm43.72 -33.18c4.58,-6.6 8.22,-14.7 11,-23.34 -5.27,1.9 -9.12,3.42 -9.12,3.42l-33.18 26.42c8.81,1.12 22.24,-3.01 30.21,-6.09 0.34,-0.13 0.7,-0.27 1.08,-0.41zm12.55 -28.51c1.98,-7.12 3.42,-14.47 4.37,-21.55 -9.72,2.99 -18.37,5.34 -18.37,5.34 -1.78,9.7 2.83,17.98 2.83,17.98 2.91,0.09 6.81,-0.61 11.18,-1.76zm5.39 -31.33c0.99,-13.25 0.18,-24.53 -2.02,-29.99 -5.43,-13.46 -23.56,-14.75 -27.89,-14.86 -6.7,6.17 -10.58,11.18 -10.58,11.18l34.26 36c2.17,-0.76 4.24,-1.54 6.22,-2.32z"/>
   <path class="fil11" d="M477.92 253.97c-5.77,-2.89 -14.83,-5.22 -22.1,3.01 0,0 -15.99,-7.23 -26.29,5.7 0,0 -11.83,-3.94 -18.62,5.91 0,0 -10.08,-4.38 -19.06,8.76 0,0 -15.55,-1.75 -21.25,10.08 0,0 -14.02,-1.75 -20.81,8.98 0,0 -21.69,-0.44 -27.6,14.24 -5.91,14.68 -1.33,73.28 22.4,94.21 23.73,20.94 81.89,49.98 99.19,50.42 17.29,0.44 34.14,0 34.14,0 0,0 16.85,0.44 34.14,0 17.29,-0.44 75.46,-29.49 99.19,-50.42 23.73,-20.94 28.32,-79.54 22.4,-94.21 -5.91,-14.68 -27.6,-14.24 -27.6,-14.24 -6.79,-10.73 -20.81,-8.98 -20.81,-8.98 -5.7,-11.83 -21.25,-10.08 -21.25,-10.08 -8.98,-13.14 -19.06,-8.76 -19.06,-8.76 -6.79,-9.86 -18.62,-5.91 -18.62,-5.91 -10.3,-12.92 -26.29,-5.7 -26.29,-5.7 -7.26,-8.22 -16.33,-5.9 -22.1,-3.01z"/>
   <path class="fil8" d="M477.92 253.97c-5.77,-2.89 -14.83,-5.22 -22.1,3.01 0,0 -6.43,-2.91 -13.76,-1.74 -30.95,52.8 -58.63,115.05 -73.56,166.78 27.08,16.84 62.45,32.93 75.29,33.26 6.45,0.17 12.84,0.21 18.32,0.2 36.54,-51.86 73.43,-123.11 95.58,-184.73 -6.82,-4.74 -12.75,-2.16 -12.75,-2.16 -6.79,-9.86 -18.62,-5.91 -18.62,-5.91 -10.3,-12.92 -26.29,-5.7 -26.29,-5.7 -7.26,-8.22 -16.33,-5.9 -22.1,-3.01zm-100.23 26.07c-2.79,1.52 -5.38,3.84 -7.08,7.38 0,0 -14.02,-1.75 -20.81,8.98 0,0 -21.69,-0.44 -27.6,14.24 -4.42,10.96 -2.98,46.39 7.91,72.36 18.33,-33.7 34.96,-69.49 47.59,-102.96zm154.31 169.93c24.76,-9.41 61.57,-29.52 79.25,-45.12 23.73,-20.94 28.32,-79.54 22.4,-94.21 -5.91,-14.68 -27.6,-14.24 -27.6,-14.24 -3.08,-4.87 -7.64,-7.17 -11.71,-8.23 -28.85,55.05 -52.67,115.37 -62.34,161.8z"/>
   <path class="fil12" d="M429.53 254.43c4.55,0 8.24,3.69 8.24,8.24 0,4.55 -3.69,8.24 -8.24,8.24 -4.55,0 -8.24,-3.69 -8.24,-8.24 0,-4.55 3.69,-8.24 8.24,-8.24z"/>
   <path class="fil13" d="M526.31 254.43c4.55,0 8.24,3.69 8.24,8.24 0,4.55 -3.69,8.24 -8.24,8.24 -4.55,0 -8.24,-3.69 -8.24,-8.24 0,-4.55 3.69,-8.24 8.24,-8.24z"/>
   <path class="fil14" d="M333.93 156.81c0.09,0.04 30.82,14.2 30.33,46.25l-1.96 -0.02c0.47,-30.78 -29.12,-44.42 -29.2,-44.46l0.84 -1.77zm347.05 355.78c-0.08,0.02 -28.63,8.76 -37.44,-2.22l1.53 -1.23c7.97,9.93 35.27,1.59 35.35,1.57l0.56 1.88zm-18.97 -43.78c-0.03,0.02 -12,6.26 -22.84,-2.69l1.25 -1.51c9.83,8.12 20.66,2.47 20.69,2.45l0.89 1.75zm-30.66 -28.12c0.02,0.02 7.12,7 2.58,15.49l-1.73 -0.92c3.85,-7.19 -2.23,-13.16 -2.25,-13.18l1.39 -1.39zm-60.78 5.43c-0,0.02 -1.1,7.42 -18.49,6.41l0.11 -1.96c15.62,0.91 16.44,-4.77 16.45,-4.78l1.93 0.33zm186.71 20.82c-0.01,0.01 -4.55,3.7 -10.19,0.41l0.98 -1.7c4.48,2.61 7.98,-0.24 7.99,-0.24l1.22 1.53zm-25.52 -36.21c-0.02,0.02 -7.82,8.21 -21.63,3.06l0.68 -1.84c12.61,4.71 19.53,-2.58 19.55,-2.6l1.4 1.37zm-52.86 -27.21c0.02,0.02 5.86,6.66 0.44,17.34l-1.75 -0.88c4.82,-9.5 -0.18,-15.17 -0.19,-15.19l1.5 -1.27zm86.34 -33.02c0,0.02 0.38,7.09 -7.09,9.27l-0.55 -1.88c5.98,-1.75 5.68,-7.3 5.68,-7.32l1.96 -0.07zm-43.32 -10.13c0.01,0.02 2.33,6.43 -9.83,13.25l-0.96 -1.71c10.73,-6.01 8.94,-10.9 8.93,-10.92l1.86 -0.62zm-56.83 10.54c0.02,0.01 6.32,3.59 7.19,13.91l-1.96 0.16c-0.79,-9.3 -6.21,-12.38 -6.23,-12.39l0.99 -1.69zm11.87 -31.19c0.02,0.01 7.47,2.22 8.36,12.7l-1.96 0.16c-0.77,-9.14 -6.95,-10.98 -6.97,-10.98l0.57 -1.87zm30.02 -33.23c0.02,-0.01 6.83,-2.31 13.99,1.33l-0.88 1.75c-6.43,-3.27 -12.49,-1.22 -12.51,-1.21l-0.6 -1.87zm27.69 -37.53c0.01,0 3.79,0.55 6.05,3.32l-1.52 1.24c-1.78,-2.18 -4.8,-2.62 -4.81,-2.62l0.28 -1.94zm-53.09 26.63c-0.04,0.02 -14.96,7.06 -28.9,-20l1.74 -0.9c13.08,25.39 26.32,19.13 26.36,19.11l0.8 1.79zm-35.3 -43.51c0.01,-0.1 2.17,-34.13 30.87,-29.27l-0.32 1.94c-26.55,-4.49 -28.58,27.39 -28.59,27.48l-1.96 -0.14zm-21.98 -93.49c-0.09,0.04 -29.68,13.67 -29.21,44.46l-1.96 0.02c-0.49,-32.06 30.24,-46.21 30.33,-46.25l0.84 1.77zm-347.33 352.13c0.08,0.02 27.38,8.37 35.35,-1.57l1.53 1.23c-8.81,10.98 -37.36,2.24 -37.44,2.22l0.56 -1.88zm19.3 -43.65c0.03,0.02 10.86,5.67 20.69,-2.45l1.25 1.51c-10.84,8.95 -22.8,2.71 -22.84,2.69l0.89 -1.75zm31.16 -24.98c-0.02,0.02 -6.09,5.99 -2.25,13.18l-1.73 0.92c-4.54,-8.48 2.56,-15.47 2.58,-15.49l1.39 1.39zm61.33 3.71c0,0.02 0.82,5.69 16.45,4.78l0.11 1.96c-17.39,1.01 -18.49,-6.39 -18.49,-6.41l1.94 -0.33zm-187.43 19.62c0.01,0.01 3.5,2.85 7.99,0.24l0.98 1.7c-5.65,3.28 -10.18,-0.4 -10.19,-0.41l1.22 -1.53zm25.69 -36.06c0.02,0.02 6.95,7.3 19.55,2.6l0.68 1.84c-13.82,5.16 -21.61,-3.03 -21.63,-3.06l1.4 -1.37zm52.96 -24.57c-0.01,0.02 -5.01,5.69 -0.19,15.19l-1.75 0.88c-5.42,-10.68 0.43,-17.32 0.44,-17.34l1.5 1.27zm-85.88 -34.21c-0,0.02 -0.3,5.57 5.68,7.32l-0.55 1.88c-7.47,-2.18 -7.09,-9.25 -7.09,-9.27l1.96 0.07zm43.22 -9.58c-0,0.01 -1.79,4.9 8.93,10.92l-0.96 1.71c-12.16,-6.82 -9.84,-13.23 -9.83,-13.25l1.86 0.62zm55.96 11.61c-0.02,0.01 -5.44,3.09 -6.23,12.39l-1.96 -0.16c0.87,-10.32 7.18,-13.9 7.19,-13.91l0.99 1.69zm-12.3 -31.01c-0.02,0.01 -6.2,1.84 -6.97,10.98l-1.96 -0.16c0.89,-10.47 8.34,-12.69 8.36,-12.7l0.57 1.87zm-31.19 -33.24c-0.02,-0.01 -6.07,-2.05 -12.51,1.21l-0.88 -1.75c7.16,-3.64 13.97,-1.34 13.99,-1.33l-0.6 1.87zm-26.81 -37.45c-0.01,0 -3.03,0.44 -4.81,2.62l-1.52 -1.24c2.26,-2.78 6.04,-3.32 6.05,-3.32l0.28 1.94zm53.61 22.9c0.04,0.02 13.28,6.28 26.36,-19.11l1.74 0.9c-13.94,27.06 -28.86,20.02 -28.9,20l0.8 -1.79zm32.55 -41.59c-0.01,-0.09 -2.04,-31.97 -28.59,-27.48l-0.32 -1.94c28.7,-4.86 30.86,29.18 30.87,29.27l-1.96 0.14z"/>
   <path class="fil15" d="M338.38 159.29c8.51,5.32 26.25,19.35 25.88,43.77l-1.96 -0.02c0.37,-23.95 -17.46,-37.52 -25.44,-42.38 0.51,-0.45 1.01,-0.92 1.52,-1.36zm294.25 296.18c0.92,-1.31 1.84,-2.65 2.76,-3.98 0.61,-6.23 -4.03,-10.79 -4.04,-10.81l-1.39 1.39c0.02,0.02 6.09,5.99 2.25,13.18l0.42 0.23zm81.01 -147.72c0.27,-0.63 0.53,-1.26 0.8,-1.89 -4.28,-0.47 -7.44,0.6 -7.45,0.6l0.6 1.87c0.01,-0 2.54,-0.86 6.05,-0.58zm-427.57 -85.43c-0.44,0.66 -0.88,1.32 -1.32,1.98 22.58,-0.64 24.4,27.81 24.41,27.89l1.96 -0.14c-0.01,-0.09 -1.87,-29.37 -25.04,-29.74zm-48.53 84.96c-0.23,0.46 -0.45,0.93 -0.68,1.39l0.44 0.88c6.43,-3.27 12.49,-1.22 12.51,-1.21l0.6 -1.87c-0.02,-0.01 -6.14,-2.07 -12.87,0.81zm333.03 138.83c-0,0.02 -1.1,7.42 -18.49,6.41l0.11 -1.96c15.62,0.91 16.44,-4.77 16.45,-4.78l1.93 0.33zm94.53 -75.22c0.02,0.01 6.32,3.59 7.19,13.91l-1.96 0.16c-0.79,-9.3 -6.21,-12.38 -6.23,-12.39l0.99 -1.69zm11.87 -31.19c0.02,0.01 7.47,2.22 8.36,12.7l-1.96 0.16c-0.77,-9.14 -6.95,-10.98 -6.97,-10.98l0.57 -1.87zm4.62 -44.12c-0.04,0.02 -14.96,7.06 -28.9,-20l1.74 -0.9c13.08,25.39 26.32,19.13 26.36,19.11l0.8 1.79zm-35.3 -43.51c0.01,-0.1 2.17,-34.13 30.87,-29.27l-0.32 1.94c-26.55,-4.49 -28.58,27.39 -28.59,27.48l-1.96 -0.14zm-257.52 193.72c0,0.02 0.82,5.69 16.45,4.78l0.11 1.96c-17.39,1.01 -18.49,-6.39 -18.49,-6.41l1.94 -0.33zm-187.43 19.62c0.01,0.01 3.5,2.85 7.99,0.24l0.98 1.7c-5.65,3.28 -10.18,-0.4 -10.19,-0.41l1.22 -1.53zm25.69 -36.06c0.02,0.02 6.95,7.3 19.55,2.6l0.68 1.84c-13.82,5.16 -21.61,-3.03 -21.63,-3.06l1.4 -1.37zm52.96 -24.57c-0.01,0.02 -5.01,5.69 -0.19,15.19l-1.75 0.88c-5.42,-10.68 0.43,-17.32 0.44,-17.34l1.5 1.27zm-42.66 -43.8c-0,0.01 -1.79,4.9 8.93,10.92l-0.96 1.71c-12.16,-6.82 -9.84,-13.23 -9.83,-13.25l1.86 0.62zm55.96 11.61c-0.02,0.01 -5.44,3.09 -6.23,12.39l-1.96 -0.16c0.87,-10.32 7.18,-13.9 7.19,-13.91l0.99 1.69zm-12.3 -31.01c-0.02,0.01 -6.2,1.84 -6.97,10.98l-1.96 -0.16c0.89,-10.47 8.34,-12.69 8.36,-12.7l0.57 1.87zm-4.39 -47.79c0.04,0.02 13.28,6.28 26.36,-19.11l1.74 0.9c-13.94,27.06 -28.86,20.02 -28.9,20l0.8 -1.79z"/>
   <path class="fil16" d="M598.08 399.7c-18.29,17.19 -66.91,40.84 -76.64,39.58 -9.74,-1.26 52.96,-28.1 72.67,-47.61 18.65,-18.46 24.1,-54.8 27.47,-53.79 6.36,1.9 -5.21,44.64 -23.49,61.82zm-239.62 0c18.29,17.19 66.91,40.84 76.64,39.58 9.74,-1.26 -52.96,-28.1 -72.67,-47.61 -18.65,-18.46 -24.1,-54.8 -27.47,-53.79 -6.36,1.9 5.21,44.64 23.49,61.82z"/>
   <path class="fil17" d="M598.08 399.7c-13.64,12.82 -44.17,29.24 -62.83,36.23 0.71,-2.81 1.45,-5.65 2.25,-8.53 17.85,-9.87 44.87,-24.1 56.61,-35.73 18.65,-18.46 24.1,-54.8 27.47,-53.79 6.36,1.9 -5.21,44.64 -23.49,61.82zm-223.22 1.86c-0.97,2.91 -1.91,5.8 -2.82,8.66 22.13,14.92 55.21,30.07 63.05,29.06 8.16,-1.05 -34.6,-20.1 -60.24,-37.72zm-36.12 -34.86c1.49,-2.88 2.97,-5.77 4.43,-8.67 -4.25,-11.53 -6.5,-20.66 -8.21,-20.15 -3.47,1.04 -1.6,14.24 3.79,28.82z"/>
   <path class="fil17" d="M531.6 331.87c2.28,0 4.12,1.85 4.12,4.12 0,2.28 -1.85,4.12 -4.12,4.12 -2.28,0 -4.12,-1.85 -4.12,-4.12 0,-2.28 1.85,-4.12 4.12,-4.12zm-82.77 37.84c2.28,0 4.12,1.85 4.12,4.12 0,2.28 -1.85,4.12 -4.12,4.12 -2.28,0 -4.12,-1.85 -4.12,-4.12 0,-2.28 1.85,-4.12 4.12,-4.12zm-8.85 -59.88c2.28,0 4.12,1.85 4.12,4.12 0,2.28 -1.85,4.12 -4.12,4.12 -2.28,0 -4.12,-1.85 -4.12,-4.12 0,-2.28 1.85,-4.12 4.12,-4.12zm28.12 18.22c2.28,0 4.12,1.85 4.12,4.12 0,2.28 -1.85,4.12 -4.12,4.12 -2.28,0 -4.12,-1.85 -4.12,-4.12 0,-2.28 1.85,-4.12 4.12,-4.12zm-52.59 40.09c2.28,0 4.12,1.85 4.12,4.12 0,2.28 -1.85,4.12 -4.12,4.12 -2.28,0 -4.12,-1.85 -4.12,-4.12 0,-2.28 1.85,-4.12 4.12,-4.12zm125.08 3.27c2.28,0 4.12,1.85 4.12,4.12 0,2.28 -1.85,4.12 -4.12,4.12 -2.28,0 -4.12,-1.85 -4.12,-4.12 0,-2.28 1.85,-4.12 4.12,-4.12zm-41.73 -15.77c2.28,0 4.12,1.85 4.12,4.12 0,2.28 -1.85,4.12 -4.12,4.12 -2.28,0 -4.12,-1.85 -4.12,-4.12 0,-2.28 1.85,-4.12 4.12,-4.12zm-18.78 35.54c2.28,0 4.12,1.85 4.12,4.12 0,2.28 -1.85,4.12 -4.12,4.12 -2.28,0 -4.12,-1.85 -4.12,-4.12 0,-2.28 1.85,-4.12 4.12,-4.12zm-74.46 -63.92c2.28,0 4.12,1.85 4.12,4.12 0,2.28 -1.85,4.12 -4.12,4.12 -2.28,0 -4.12,-1.85 -4.12,-4.12 0,-2.28 1.85,-4.12 4.12,-4.12zm97.63 -19.79c2.28,0 4.12,1.85 4.12,4.12 0,2.28 -1.85,4.12 -4.12,4.12 -2.28,0 -4.12,-1.85 -4.12,-4.12 0,-2.28 1.85,-4.12 4.12,-4.12z"/>
   <polygon class="fil18" points="139.36,79.46 268.24,185.19 266.05,187.85 137.18,82.11 "/>
   <polygon class="fil18" points="124.45,91.64 164.59,140.12 161.93,142.32 121.79,93.84 "/>
   <polygon class="fil18" points="126.95,603.85 276.85,452.77 279.29,455.19 129.39,606.28 "/>
   <polygon class="fil18" points="106.82,572.39 168.71,484.27 171.53,486.25 109.64,574.38 "/>
   <polygon class="fil18" points="809.42,611.64 695.03,504.6 697.38,502.09 811.77,609.13 "/>
   <polygon class="fil18" points="824.67,606.54 777.8,530.06 780.74,528.26 827.61,604.74 "/>
   <polygon class="fil18" points="808.24,75.73 693.1,207.75 690.51,205.48 805.65,73.47 "/>
   <polygon class="fil18" points="841.29,98.51 774.45,193.65 771.63,191.67 838.47,96.53 "/>
   <polygon class="fil18" points="473.78,73.83 448.04,142.76 444.82,141.56 470.55,72.63 "/>
   <polygon class="fil18" points="500.83,72.61 523.24,130.87 520.02,132.1 497.62,73.84 "/>
   <polygon class="fil18" points="526.02,614.16 539.92,512.74 543.34,513.2 529.43,614.62 "/>
   <polygon class="fil18" points="470.26,615.38 402.71,492.02 405.74,490.38 473.28,613.73 "/>
   <polygon class="fil18" points="497.48,615.01 485.93,572.8 489.25,571.9 500.8,614.1 "/>
   <g>
    <polygon class="fil19" points="691.96,448.03 794.52,448.03 794.52,568.09 691.96,568.09 "/>
    <path class="fil7" d="M723.78 482.33c-1.35,-1.23 -3.44,-2.74 -5.9,-3.13 0,0 1.05,-1.79 0.91,-3.33 0,0 7.03,-2.76 7.7,-7.11 0,0 7.84,-2.89 8.03,-7.24 0,0 -5.36,2.1 -7.56,1.1 0,0 3.4,-4.16 7.8,-3.78 0,0 -7.61,-3.97 -12.58,3.35 -1.12,-0.31 -8.64,5.7 -7.7,9.57 -1.83,0.31 -4.95,7.74 -0.61,10.28 0,0 -2.13,4.11 6.45,7.18 0.05,0.45 0.11,0.91 0.19,1.37 -1.49,-0.44 -3.46,-1.07 -4.3,-1.51 -1.42,-0.76 -1.68,-0.37 -1.68,-0.37 0,0 -3.22,-4.8 -4.44,-4.82 0,0 -2.63,-5.43 -3.95,-5.43 0,0 -1.53,-2.26 -1.75,-3.39 -0.23,-1.14 -0.06,-1.88 -0.43,-1.88 -0.37,0 -0.46,1.73 -0.25,2.84 0.22,1.11 1.18,2.6 1.64,2.86 0,0 -0.56,1.21 2.82,5.19 0,0 -0.18,3.48 5.25,6.3 0,0 -0.13,0.45 1.22,0.98 1.2,0.47 4.62,2.01 6.61,2.31 0.1,0.32 0.22,0.63 0.34,0.94 -1.03,-0.4 -4.71,-1.76 -5.31,-1.39 0,0 -6.96,-2.88 -8.16,-1.61 0,0 -6.09,0.12 -6.27,1.42 0,0 -2.09,1.49 -2.22,3.5 -0.13,2.01 0.32,1.24 0.5,0.55 0.17,-0.69 1.56,-2.45 2.36,-2.79 0,0 1.72,0.51 6.97,-0.92 0,0 2.12,1.78 5.8,1.73 0,0 0.19,0.66 1.45,0.9 1.26,0.24 4.42,1.22 5.57,1.66 0.48,0.19 1.1,0.4 1.75,0.57 0.41,0.34 0.87,0.7 1.38,1.06 -1.93,-0.29 -4.52,-0.68 -6.03,-0.94 -2.63,-0.45 -4.88,-0.83 -5.08,-0.43 0,0 -7.98,2.61 -7.71,3.78 0,0 -4.78,3.61 -3.64,5.25 0,0 -0.17,0.58 0.2,1.89 0.37,1.31 1.28,3.61 1.77,3.6 0.49,-0.01 -0.54,-1.63 -0.56,-3.08 -0.03,-1.46 0,-2.07 -0.12,-2.29 0,0 4.87,-2.8 5.41,-4.94 0,0 3.87,-0.69 4.61,-1.85 0,0 12.56,2.71 16.14,2.04 0.4,0.21 0.81,0.42 1.2,0.62 -0.61,0.11 -1.37,0.38 -1.58,1.03 0,0 -8.02,-1.98 -8.83,-0.65 0,0 -5.01,0.09 -4.48,3.85 0,0 -0.72,0.22 -1.75,2.54 -1.03,2.32 -1.82,3.11 -1.03,3.79 0,0 -0.7,2.43 1.47,3.85 2.17,1.42 6,2.84 8.66,-0.75 0,0 -2.15,-3.04 -4.85,-3.38 0,0 1.41,-4.79 0.68,-6.48 0,0 0.86,-0.71 0.95,-1.35 0,0 5.56,1.94 8.17,0.46 0,0 2.77,0.79 3.56,-1.06 0,0 2.71,0.67 4.15,0.27 0.58,0.17 1.07,0.26 1.43,0.27 2.51,0.06 4.95,0 4.95,0 0,0 2.44,0.06 4.95,0 0.39,-0.01 0.93,-0.12 1.57,-0.32 1.4,0.49 4.29,-0.23 4.29,-0.23 0.79,1.86 3.56,1.06 3.56,1.06 2.61,1.47 8.17,-0.46 8.17,-0.46 0.09,0.65 0.95,1.35 0.95,1.35 -0.74,1.69 0.68,6.48 0.68,6.48 -2.7,0.34 -4.86,3.38 -4.86,3.38 2.66,3.59 6.5,2.16 8.66,0.75 2.17,-1.42 1.47,-3.85 1.47,-3.85 0.79,-0.68 0,-1.48 -1.03,-3.79 -1.03,-2.32 -1.75,-2.54 -1.75,-2.54 0.53,-3.76 -4.48,-3.85 -4.48,-3.85 -0.82,-1.33 -8.83,0.65 -8.83,0.65 -0.24,-0.73 -1.16,-0.98 -1.8,-1.06 0.4,-0.2 0.81,-0.41 1.22,-0.63 3.29,0.81 16.34,-2 16.34,-2 0.74,1.16 4.61,1.85 4.61,1.85 0.54,2.14 5.41,4.94 5.41,4.94 -0.12,0.21 -0.09,0.83 -0.12,2.29 -0.03,1.46 -1.05,3.07 -0.56,3.08 0.49,0.01 1.4,-2.29 1.77,-3.6 0.37,-1.31 0.2,-1.89 0.2,-1.89 1.14,-1.64 -3.64,-5.25 -3.64,-5.25 0.27,-1.18 -7.71,-3.78 -7.71,-3.78 -0.2,-0.39 -2.44,-0.02 -5.08,0.43 -1.6,0.27 -4.42,0.7 -6.38,1 0.49,-0.34 0.94,-0.68 1.34,-1.01 0.79,-0.19 1.57,-0.45 2.15,-0.67 1.15,-0.45 4.32,-1.42 5.57,-1.66 1.26,-0.24 1.45,-0.9 1.45,-0.9 3.69,0.04 5.8,-1.73 5.8,-1.73 5.26,1.42 6.97,0.92 6.97,0.92 0.8,0.35 2.19,2.1 2.36,2.79 0.17,0.69 0.63,1.46 0.5,-0.55 -0.13,-2.01 -2.22,-3.5 -2.22,-3.5 -0.17,-1.3 -6.27,-1.42 -6.27,-1.42 -1.2,-1.27 -8.16,1.61 -8.16,1.61 -0.7,-0.43 -5.58,1.5 -5.58,1.5l-0.08 0.06c0.14,-0.34 0.27,-0.7 0.39,-1.06 1.92,-0.18 5.63,-1.86 6.9,-2.35 1.35,-0.53 1.22,-0.98 1.22,-0.98 5.42,-2.82 5.25,-6.3 5.25,-6.3 3.38,-3.98 2.82,-5.19 2.82,-5.19 0.46,-0.26 1.43,-1.75 1.64,-2.86 0.22,-1.11 0.13,-2.84 -0.25,-2.84 -0.37,0 -0.2,0.74 -0.43,1.88 -0.23,1.14 -1.75,3.39 -1.75,3.39 -1.32,0 -3.95,5.43 -3.95,5.43 -1.21,0.02 -4.44,4.82 -4.44,4.82 0,0 -0.26,-0.38 -1.68,0.37 -0.89,0.48 -3.09,1.16 -4.59,1.6 0.09,-0.54 0.16,-1.07 0.21,-1.58l0.16 0.17c8.71,-3.07 6.56,-7.22 6.56,-7.22 4.34,-2.54 1.22,-9.97 -0.61,-10.28 0.94,-3.87 -6.58,-9.88 -7.7,-9.57 -4.97,-7.32 -12.58,-3.35 -12.58,-3.35 4.4,-0.38 7.8,3.78 7.8,3.78 -2.2,1 -7.56,-1.1 -7.56,-1.1 0.19,4.35 8.03,7.24 8.03,7.24 0.67,4.35 7.7,7.11 7.7,7.11 -0.14,1.54 0.91,3.33 0.91,3.33 -2.48,0.4 -4.59,1.94 -5.94,3.17 -0.58,-0.09 -1,-0.09 -1,-0.09 -0.98,-1.56 -3.02,-1.3 -3.02,-1.3 -0.83,-1.71 -3.08,-1.46 -3.08,-1.46 -1.3,-1.9 -2.76,-1.27 -2.76,-1.27 -0.98,-1.43 -2.7,-0.86 -2.7,-0.86 -1.49,-1.87 -3.81,-0.83 -3.81,-0.83 -1.05,-1.19 -2.37,-0.85 -3.2,-0.44 -0.84,-0.42 -2.15,-0.76 -3.2,0.44 0,0 -2.32,-1.05 -3.81,0.83 0,0 -1.71,-0.57 -2.7,0.86 0,0 -1.46,-0.63 -2.76,1.27 0,0 -2.25,-0.25 -3.08,1.46 0,0 -2.03,-0.25 -3.02,1.3 0,0 -0.31,-0.01 -0.76,0.05z"/>
    <path class="fil12" d="M696.2 529.62l3.43 0 0 33.64 -3.43 0 0 -33.64zm68.05 0l5.92 0 0 33.64 -5.92 0 0 -33.64zm-8.33 0l5.92 0 0 33.64 -5.92 0 0 -33.64zm25.04 0l9.88 0 0 33.64 -9.88 0 0 -33.64zm-6.24 0l3.85 0 0 33.64 -3.85 0 0 -33.64zm-30.88 0l9.88 0 0 33.64 -9.88 0 0 -33.64zm-7.57 0l3.85 0 0 33.64 -3.85 0 0 -33.64zm-18.36 0l15.22 0 0 33.64 -15.22 0 0 -33.64zm-8.11 0l5.92 0 0 33.64 -5.92 0 0 -33.64zm-8.33 0l5.92 0 0 33.64 -5.92 0 0 -33.64z"/>
   </g>
  </g>
 </g>
</svg>
